<?xml version="1.0" encoding="UTF-8" standalone="no"?>
<!-- Created with Inkscape (http://www.inkscape.org/) -->
<svg
   xmlns:dc="http://purl.org/dc/elements/1.1/"
   xmlns:cc="http://web.resource.org/cc/"
   xmlns:rdf="http://www.w3.org/1999/02/22-rdf-syntax-ns#"
   xmlns:svg="http://www.w3.org/2000/svg"
   xmlns="http://www.w3.org/2000/svg"
   xmlns:sodipodi="http://sodipodi.sourceforge.net/DTD/sodipodi-0.dtd"
   xmlns:inkscape="http://www.inkscape.org/namespaces/inkscape"
   width="204.33548"
   height="230.93207"
   id="svg3662"
   sodipodi:version="0.32"
   inkscape:version="0.44.1"
   version="1.0"
   sodipodi:docname="marque.svg">
  <defs
     id="defs3664" />
  <sodipodi:namedview
     id="base"
     pagecolor="#ffffff"
     bordercolor="#666666"
     borderopacity="1.0"
     gridtolerance="10000"
     guidetolerance="10"
     objecttolerance="10"
     inkscape:pageopacity="0.0"
     inkscape:pageshadow="2"
     inkscape:zoom="2.8"
     inkscape:cx="211.53902"
     inkscape:cy="107.78969"
     inkscape:document-units="px"
     inkscape:current-layer="layer1"
     inkscape:window-width="1680"
     inkscape:window-height="994"
     inkscape:window-x="-4"
     inkscape:window-y="-4" />
  <metadata
     id="metadata3667">
    <rdf:RDF>
      <cc:Work
         rdf:about="">
        <dc:format>image/svg+xml</dc:format>
        <dc:type
           rdf:resource="http://purl.org/dc/dcmitype/StillImage" />
      </cc:Work>
    </rdf:RDF>
  </metadata>
  <g
     inkscape:label="Layer 1"
     inkscape:groupmode="layer"
     id="layer1"
     transform="translate(-283.6852,-29.80804)">
    <path
       style="font-style:normal;font-variant:normal;font-weight:normal;font-stretch:normal;letter-spacing:normal;word-spacing:normal;text-anchor:start;fill:#540e58;fill-opacity:1;fill-rule:nonzero;stroke:none;stroke-width:0;stroke-linecap:butt;stroke-linejoin:miter;stroke-miterlimit:10.43299961;stroke-dasharray:none;stroke-dashoffset:0;stroke-opacity:1"
       d="M 373.52246,29.808036 C 345.57645,30.031384 319.19954,32.789821 299.65688,37.172967 C 291.92356,38.903888 289.04065,44.516395 288.23103,48.98329 C 286.08133,60.457623 283.37852,82.010839 283.71355,105.04327 C 283.74146,107.52799 283.73793,107.06014 283.82168,109.57276 C 288.56775,105.02212 332.45666,62.391549 332.45666,62.391549 L 377.99188,107.84266 L 377.99188,107.75856 L 377.99188,107.67446 L 377.99188,107.61439 L 377.99188,107.55432 L 377.99188,107.47022 L 377.99188,107.42216 L 377.99188,107.36209 L 377.99188,107.33806 L 377.99188,107.27799 L 377.99188,107.21791 L 377.99188,107.19388 L 377.99188,107.16986 L 377.99188,107.10978 L 377.99188,107.08575 L 377.99188,107.06172 L 377.99188,107.02568 L 377.99188,107.00165 L 377.99188,106.97762 L 377.99188,106.94157 L 377.99188,106.91754 L 377.99188,106.89351 L 377.99188,106.85747 L 377.99188,106.83344 L 377.99188,106.80941 L 377.99188,106.77337 L 377.99188,106.74934 L 377.99188,106.72531 L 377.99188,106.68927 L 377.99188,106.66524 L 377.99188,106.64121 L 377.99188,106.60517 L 377.99188,106.58114 L 377.96785,106.55711 L 377.96785,106.52107 L 377.96785,106.49704 L 377.96785,106.47301 L 377.96785,106.43696 L 377.96785,106.41293 L 377.96785,106.38891 L 377.96785,106.32883 L 377.96785,106.26876 L 377.96785,106.24473 L 377.96785,106.19667 L 377.96785,106.1366 L 377.96785,106.07653 L 377.96785,106.02847 L 377.96785,105.94436 L 377.96785,105.88429 L 377.96785,105.80019 L 377.96785,105.74012 C 377.77241,76.370289 375.81174,48.652753 373.52246,29.808036 z M 398.59687,29.808036 C 396.19592,49.741561 394.15148,77.351112 394.15148,108.56354 L 394.15148,120.51804 L 394.15148,120.7343 L 397.1431,120.98661 C 398.56693,121.12621 399.68699,122.35017 399.88242,123.77399 C 400.07785,125.1699 400.24286,126.93383 400.24286,126.93383 L 400.26689,126.9098 L 400.93971,126.9098 L 401.86484,126.9098 L 403.00622,126.87376 L 404.37587,126.87376 L 405.93777,126.84973 L 407.6919,126.82569 L 409.65028,126.78965 L 411.77685,126.74159 L 414.05962,126.68151 L 416.52261,126.62144 L 419.11775,126.57339 L 421.82104,126.48928 L 424.66848,126.40518 L 427.63608,126.29705 L 430.67578,126.1769 L 433.79956,126.06878 L 437.04349,125.9246 L 440.29944,125.75639 L 447.03961,125.43201 L 453.89994,125.0115 L 460.79629,124.55494 L 467.66862,124.00227 L 474.42081,123.38953 L 477.71281,123.05311 L 480.95674,122.69268 L 484.1406,122.2962 L 487.20432,121.87569 C 489.07482,104.09188 487.64876,69.782275 483.76815,48.98329 C 482.93061,44.516395 480.02756,38.987636 472.29425,37.172967 C 452.55615,32.566473 426.45913,30.003465 398.59687,29.808036 z M 358.48022,37.148938 C 359.12235,37.288522 359.37675,38.319985 359.23713,38.710832 C 359.51632,38.710832 360.53964,38.549714 360.76299,38.326367 C 360.76299,39.052242 360.24075,39.937026 359.84988,40.104522 C 360.3524,40.188286 361.20857,40.111593 361.45983,39.88826 C 361.32025,40.418704 360.74145,41.534944 360.37852,41.702461 C 361.27189,42.009557 361.82588,42.475911 362.21675,43.564718 C 361.54671,43.285534 361.15315,43.628328 360.59478,43.51666 C 361.76735,44.940486 362.21814,47.031236 362.55316,47.5896 C 362.24606,47.394183 361.61006,47.036222 361.13544,46.868725 C 361.61006,48.041282 360.8796,49.158168 360.99126,49.80028 C 360.62833,49.549016 360.12162,49.290386 359.98204,48.98329 C 359.78661,49.457902 359.37389,50.381855 359.51347,51.554408 C 359.23429,51.247307 358.70357,50.992903 358.48022,50.79749 C 358.00562,51.439599 357.74732,51.857486 357.74732,53.476739 C 357.74732,55.738104 358.81448,57.925601 359.26117,58.76315 C 359.98705,60.075303 360.11877,61.187951 360.25837,61.634632 C 360.45379,62.500108 361.07884,63.088391 361.91638,63.088394 C 362.726,63.088394 363.4182,62.335772 363.4182,61.442399 C 363.4182,59.823146 361.41177,58.763342 361.41177,55.915696 C 361.41177,54.04518 362.88568,53.091289 362.9136,51.890816 C 362.94151,50.857843 361.96556,51.500356 361.2676,51.025767 C 362.16099,50.85825 362.72483,49.792503 363.56238,49.848338 C 364.28824,49.904175 364.44758,50.302394 364.47549,50.665329 C 364.53132,51.167857 364.1988,51.751574 364.11506,51.974918 C 364.89675,51.276958 365.25645,50.214466 365.25644,49.656105 C 365.25644,48.874394 364.14437,47.983715 364.45146,46.448215 C 364.47938,46.252784 364.48361,46.279323 364.51153,46.111808 C 364.84654,47.870644 367.29892,48.313546 367.29892,50.016542 L 367.29892,50.100645 L 367.29892,50.160717 L 367.29892,50.244819 L 367.29892,50.292878 L 367.29892,50.37698 L 367.27489,50.437052 L 367.27489,50.497125 L 367.23884,50.545183 L 367.23884,50.605256 L 367.21481,50.665329 L 367.19078,50.713387 L 367.19078,50.749432 L 367.13071,50.857563 L 367.07063,50.941665 L 367.02257,51.001738 L 366.9625,51.08584 L 366.91445,51.169942 L 366.83034,51.218 L 366.77027,51.278073 L 366.68617,51.326131 L 366.60207,51.386204 L 366.51797,51.446276 L 366.43387,51.470306 L 366.34976,51.530379 L 366.15753,51.63851 L 365.98932,51.722612 L 365.90522,51.782685 L 365.7971,51.830743 L 365.71299,51.890816 L 365.62889,51.974918 L 365.54479,52.03499 L 365.46068,52.119092 L 365.37658,52.167151 L 365.29248,52.251253 L 365.20838,52.359384 L 365.12427,52.443486 C 366.01765,52.080538 366.98654,52.283355 366.98653,53.260477 C 366.98653,54.125953 365.65576,54.659803 365.37658,55.050648 C 365.26492,55.246079 365.12004,55.383857 365.0642,55.579289 C 364.89669,55.020929 365.20838,54.51637 365.20838,54.125526 C 365.20838,53.67883 364.90202,53.452706 364.42743,53.45271 C 363.72947,53.45271 361.82903,55.153996 362.97368,57.862057 C 362.91784,56.912848 363.25071,56.27543 363.4182,56.107929 C 363.55781,55.912498 363.72246,55.54609 363.69454,55.26691 C 364.05747,55.936938 364.13908,56.250301 364.13908,56.780745 C 364.13908,57.953303 363.30758,58.170137 363.67051,59.063514 C 363.75426,59.286862 363.83518,59.489307 363.94685,59.796402 C 363.94685,59.377623 364.03128,59.034209 364.11506,58.727106 C 364.17089,58.447926 364.65182,57.917201 364.67974,57.693853 C 364.70765,57.47052 364.73557,57.276188 364.67974,56.997007 C 365.07059,57.47162 365.34054,57.865183 365.34053,58.618975 C 365.34053,59.512351 364.92357,60.013706 364.8119,60.264971 C 364.70024,60.51622 364.59139,60.771312 364.53556,61.190093 C 364.31222,63.116441 363.3409,64.03755 362.08459,64.037546 C 361.3308,64.037546 360.71283,63.900122 360.21031,63.593007 C 360.21031,66.077719 357.38689,65.87849 357.38689,67.497743 C 357.38689,67.944422 357.6685,68.500231 357.97561,68.80733 C 358.31062,69.08651 359.42723,69.538416 359.87391,70.06886 C 359.25972,70.124692 358.56294,70.338816 358.22791,70.729662 C 359.26089,71.23219 359.2336,71.82223 359.34527,72.603934 C 358.34023,72.101406 357.89046,72.384827 357.6392,72.664007 C 357.3321,72.999024 357.46961,73.414901 357.13458,73.889494 C 356.96707,73.498649 356.68831,73.168622 356.26953,73.168619 C 355.82285,73.168619 354.95995,73.950604 354.95994,74.201872 C 354.90412,74.899816 354.60098,75.15138 353.98677,75.235125 C 353.51217,75.737653 353.62244,75.949956 353.65037,76.424567 C 353.2316,76.033707 353.17436,75.785008 353.31396,75.114979 C 352.86726,74.919548 352.91818,74.560914 353.08568,74.225901 L 352.89345,74.081727 C 352.64219,74.332991 352.3903,74.613212 351.77608,74.334032 C 351.55277,74.417785 351.24322,74.788448 351.18737,75.235125 C 351.01987,74.202169 351.35627,73.86476 351.52378,73.697261 C 351.44002,73.473912 351.58561,72.991584 352.00437,72.796167 C 352.00437,72.684484 351.94429,72.659771 351.94429,72.603934 C 351.60927,72.603934 351.29906,72.466849 351.18737,72.243497 C 350.85236,72.187666 350.40608,72.553035 350.32232,72.832211 C 350.32232,72.218 350.76826,71.62228 351.10327,71.510609 C 351.52205,70.7289 352.24639,70.623279 352.66517,71.04204 C 352.91644,71.293304 353.50474,71.546649 354.11893,71.546652 C 354.70521,71.546652 355.24087,71.069252 355.38046,70.873837 C 355.54798,70.650488 355.54902,70.65689 355.63277,70.489371 C 355.74445,70.18227 355.99466,69.841348 355.38046,69.059636 C 354.90586,68.44544 353.67439,67.278 353.67439,66.44046 C 353.64648,65.072471 354.28566,64.259499 354.89987,63.701138 C 354.67654,63.701138 354.73841,63.701138 354.43131,63.701138 C 353.53793,63.701138 353.45042,63.136453 352.55703,63.136453 C 351.887,63.136453 351.52378,63.77955 351.52378,64.337911 C 351.52378,64.952107 351.60469,65.068308 351.80012,65.431236 C 352.07929,65.96168 352.17221,66.210376 352.08847,66.740824 C 351.61386,66.266213 350.85243,66.018151 350.23822,66.548591 C 350.01487,67.218636 349.87605,67.463082 349.45727,67.798107 C 349.40144,67.239746 348.2877,66.356281 347.28264,67.30551 C 347.17098,67.556773 347.09153,68.050412 346.39356,68.050412 C 345.9748,68.050412 345.9964,67.965957 345.82887,67.882209 C 345.52178,68.133472 345.29989,68.420373 345.21613,68.783301 C 345.07653,68.252857 345.2769,67.753231 345.44441,67.557815 C 345.38856,67.306551 345.41365,66.716111 345.72075,66.548591 C 345.60907,66.436926 345.6642,66.523874 345.55254,66.356357 C 345.13378,66.747222 344.40199,66.803054 344.1228,66.356357 C 343.87154,66.412206 343.62917,66.578945 343.37791,67.137305 C 343.32207,66.578945 343.6793,65.963068 343.93058,65.767644 C 343.93058,65.34888 344.52171,64.955229 345.108,65.094828 C 345.16384,65.038995 345.10022,64.986347 345.15606,64.902595 C 345.23981,64.818847 345.15606,64.842526 345.15606,64.842522 C 344.96063,64.75877 344.40726,64.73551 344.43519,64.037546 C 344.12809,63.897965 343.76946,64.058376 343.54611,64.253808 C 343.76946,63.639616 344.30054,63.452719 344.66346,63.424803 C 344.80305,63.173534 345.24509,63.136453 345.46844,63.136453 C 345.8872,63.136453 346.16953,63.313826 346.22535,63.593007 C 346.67205,64.318883 347.59495,64.590216 348.54418,64.590216 C 349.01877,64.590216 349.37318,64.231582 349.37317,63.701138 C 349.37317,63.142774 348.4841,61.607462 348.4841,60.853685 C 348.4841,60.155725 349.7332,58.763146 350.59866,58.76315 C 353.22297,58.76315 353.84503,59.880508 354.43131,59.880504 C 355.24094,59.880504 355.37691,59.679809 355.48859,59.568126 C 354.2881,58.060557 353.48119,58.082972 352.2807,57.273344 C 351.69442,56.854563 351.39127,56.18924 351.30752,55.519216 C 350.60957,55.714633 349.87642,56.695198 349.54138,57.309387 C 349.37388,57.002291 349.12761,56.804771 348.82051,56.804774 C 348.23422,56.804774 347.81412,57.552461 347.53494,58.222494 C 347.36746,57.468718 346.94665,56.780745 346.08118,56.780745 C 345.60656,56.780745 345.07938,57.002295 344.9398,57.309387 C 344.8002,57.588571 344.35609,58.093536 343.63021,57.898101 C 343.40686,58.093532 343.14895,58.149642 342.98142,58.931354 C 342.73016,57.954213 342.98602,57.748997 343.1256,57.525649 C 342.98602,56.883526 343.26624,56.631996 343.37791,56.492396 L 343.31783,56.300162 C 342.92698,56.439762 342.34396,56.406898 342.17644,56.071886 C 341.7856,56.04397 341.63828,56.130152 341.27535,56.6606 C 341.33119,56.046403 341.70148,55.514644 342.09235,55.375041 C 342.23193,55.012113 342.73084,54.8464 343.14963,54.8464 C 343.17754,54.734732 343.23374,54.734028 343.23373,54.678196 C 342.95455,54.51068 342.73335,54.176094 342.78919,53.813146 C 342.48209,53.450218 342.11922,53.677453 341.84004,53.789117 C 342.34256,53.258673 342.95914,53.033237 343.37791,53.284506 C 344.24336,52.97741 344.54367,53.39472 344.62742,53.897248 C 344.71116,54.455609 345.60442,54.546032 346.52572,54.546036 C 348.53582,54.546036 351.74712,52.673624 351.52378,51.193971 C 351.02125,51.05439 350.96159,51.08584 350.59866,51.08584 C 349.53777,51.08584 348.17143,52.415547 347.13847,52.443486 C 347.64099,51.85719 347.33988,51.244166 347.61905,50.79749 C 347.03277,50.76957 346.47703,51.16146 345.36031,51.049796 C 345.72326,50.854364 345.97306,50.05154 345.97305,49.80028 C 345.97305,49.493185 345.97208,48.959257 344.77159,48.95926 C 344.65993,48.987177 344.34615,49.103436 344.1228,49.103436 C 343.8157,49.103436 343.04149,49.008772 343.04149,48.394576 C 342.62273,48.310828 342.34293,48.427771 341.92414,48.706955 C 342.00789,48.316107 342.84218,47.761695 343.06552,47.733775 C 343.23303,47.398762 343.57082,47.225275 343.73835,47.253191 C 343.76625,47.08568 343.76237,47.260278 343.76237,47.036929 C 343.37151,46.981098 342.84538,46.841902 342.8733,46.17188 C 342.5662,45.920616 342.39804,45.864073 341.75593,46.003677 C 342.56554,45.41738 342.84218,45.523447 343.06552,45.607196 C 343.67972,45.1605 344.13162,45.411763 344.32706,45.607196 C 344.4108,45.523447 344.46734,45.494839 344.49526,45.438992 C 344.3836,44.992311 344.40406,44.573239 344.62742,44.405739 C 344.5995,43.931126 344.4013,43.792661 343.95461,43.708894 C 344.848,43.708894 345.18925,43.930439 345.46844,44.237534 C 345.99889,44.293371 346.30946,44.743542 346.30946,45.078554 C 346.33737,45.916098 345.44359,46.471833 347.17451,47.337293 C 347.67703,47.64439 348.42714,47.894892 349.18094,48.118241 C 349.93473,48.341588 350.86049,48.706955 351.22342,48.706955 C 350.94424,48.232339 351.04536,47.787876 350.59866,47.313264 C 351.12911,47.285344 351.77817,47.481819 352.2807,47.565571 C 352.16903,46.895542 352.33091,46.891024 351.88422,46.472244 C 352.27507,46.528077 352.81462,46.524524 353.12172,46.580376 C 355.04807,46.775788 355.06558,45.798444 355.42851,44.597972 C 354.78639,44.653804 353.678,44.797221 352.6171,45.523094 C 352.70088,45.13223 352.61711,44.884929 352.6171,44.549914 C 352.6171,43.963633 353.06658,43.853068 353.28992,43.853068 C 353.40159,43.853068 353.67932,43.792995 353.90267,43.792995 C 354.32145,43.792995 354.90272,43.324485 354.62354,42.375276 C 354.51185,41.92858 354.14936,41.638855 353.75849,41.750519 C 353.47932,41.834282 353.39241,41.839211 353.00158,41.978795 C 352.63864,42.118391 352.56092,42.364657 352.53301,42.69967 C 352.47717,42.56007 352.33654,42.142424 352.2807,42.002825 C 352.22486,41.891157 352.1641,41.817339 352.05242,41.510228 C 352.02451,41.426475 352.03229,41.417644 352.00437,41.30598 C 351.78101,40.831368 352.0782,40.412676 352.49696,40.356828 C 352.83197,40.273077 353.39945,40.140216 353.73447,40.056464 C 354.4045,39.83312 354.62001,39.578392 354.73168,39.215444 C 354.89919,38.852512 354.99065,38.686807 355.63277,38.686803 C 355.8282,38.686803 356.49919,38.710832 356.83422,38.710832 C 357.78343,38.710832 358.81524,37.986486 358.48022,37.148938 z M 356.22149,39.419692 C 355.79573,39.423183 355.40838,39.439835 355.38046,39.46775 C 355.24088,39.74693 355.34899,40.19746 355.48859,40.392872 L 355.51262,40.392872 L 355.54866,40.392872 L 355.5727,40.392872 L 355.59673,40.392872 L 355.63277,40.356828 L 355.6568,40.356828 L 355.68083,40.356828 L 355.7409,40.356828 L 355.76492,40.332799 L 355.80097,40.332799 L 355.825,40.332799 L 355.9091,40.30877 L 355.96917,40.272726 L 356.05327,40.248697 L 356.10134,40.224668 L 356.18543,40.188624 L 356.24551,40.164595 L 356.30558,40.164595 L 356.32961,40.140566 L 356.35364,40.140566 L 356.37767,40.104522 L 356.41371,40.104522 L 356.43775,40.080493 L 356.46178,40.056464 L 356.49782,40.056464 C 356.86076,39.83312 356.94374,39.694981 357.27877,39.443721 C 357.11125,39.429765 356.64723,39.416201 356.22149,39.419692 z M 313.41356,40.416901 C 314.02776,40.528569 314.27793,41.527859 314.11041,41.918723 C 314.41753,41.918723 315.4009,41.729684 315.62425,41.534257 C 315.59633,42.232216 315.08997,43.041006 314.69912,43.264354 C 315.17372,43.320191 316.0458,43.207469 316.29706,43.012049 C 316.15748,43.514576 315.5907,44.598675 315.22777,44.766176 C 316.09322,45.073272 316.63097,45.52339 316.99391,46.556346 C 316.35179,46.305098 315.98648,46.616085 315.45604,46.532317 C 316.60068,47.87239 317.01933,49.910495 317.35435,50.413023 C 317.04725,50.245523 316.40735,49.911595 315.96065,49.716178 C 316.43527,50.860818 315.73271,51.941311 315.81648,52.527588 C 315.45353,52.30424 315.01082,52.053733 314.8433,51.746641 C 314.64787,52.221254 314.25527,53.092903 314.42279,54.209628 C 314.11567,53.930447 313.609,53.672171 313.41356,53.476739 C 312.96687,54.118866 312.71672,54.516593 312.71672,56.107929 C 312.71672,58.257612 313.72378,60.320392 314.17048,61.130021 C 314.84051,62.414241 315.01185,63.450581 315.0956,63.869342 C 315.31895,64.734817 315.93586,65.263032 316.71757,65.263032 C 317.49928,65.263032 318.13529,64.562707 318.13529,63.725168 C 318.13529,62.161747 316.23699,61.162719 316.23699,58.426742 C 316.23699,56.612057 317.63881,55.714705 317.66672,54.570065 C 317.69464,53.537088 316.73493,54.147821 316.09282,53.729044 C 316.95827,53.533613 317.49387,52.559741 318.3035,52.587661 C 319.00144,52.643493 319.13674,53.005675 319.19258,53.368608 C 319.2484,53.84322 318.91979,54.434721 318.8081,54.630138 C 319.58982,53.988026 319.92546,52.949905 319.92546,52.419457 C 319.92546,51.637764 318.8374,50.79937 319.14452,49.319698 C 319.17243,49.124281 319.17278,49.158933 319.22862,49.019333 C 319.53572,50.694418 321.87182,51.108696 321.87182,52.755865 L 321.87182,52.815937 L 321.87182,52.900039 L 321.87182,52.948098 L 321.87182,53.032199 L 321.87182,53.092273 L 321.84779,53.152345 L 321.84779,53.200404 L 321.82377,53.260477 L 321.82377,53.308535 L 321.78772,53.368608 L 321.78772,53.42868 L 321.76369,53.45271 L 321.70362,53.536811 L 321.67959,53.620913 L 321.63153,53.705015 L 321.57146,53.789117 L 321.48735,53.84919 L 321.42728,53.897248 L 321.34318,53.957322 L 321.29512,54.017395 L 321.21102,54.065454 L 321.12692,54.125526 L 321.04282,54.149555 L 320.95872,54.209628 L 320.79051,54.29373 L 320.6223,54.401861 L 320.5382,54.461934 L 320.4541,54.509992 L 320.37,54.570065 L 320.26187,54.630138 L 320.17777,54.678196 L 320.09367,54.762298 L 320.0336,54.822371 L 319.94949,54.906473 L 319.86539,54.990575 L 319.78128,55.098706 C 320.61883,54.735774 321.57146,54.934316 321.57146,55.855624 C 321.57146,56.693169 320.28485,57.194873 320.0336,57.585722 C 319.89399,57.753234 319.77705,57.866986 319.72121,58.090334 C 319.58162,57.531969 319.86539,57.087488 319.86539,56.696643 C 319.86539,56.249948 319.55516,56.047857 319.10847,56.047857 C 318.43844,56.047857 316.62599,57.664688 317.71478,60.288999 C 317.63103,59.367692 317.99569,58.762442 318.13529,58.594946 C 318.3028,58.42743 318.43954,58.085051 318.41163,57.777955 C 318.77455,58.447984 318.83213,58.729186 318.83213,59.231718 C 318.83213,60.376358 318.02078,60.604855 318.41163,61.442399 C 318.49537,61.665747 318.56037,61.860064 318.69997,62.139244 C 318.69997,61.72048 318.75228,61.413083 318.8081,61.105991 C 318.86394,60.854727 319.30495,60.316228 319.36078,60.120796 C 319.41663,59.925368 319.45267,59.711255 319.39682,59.459995 C 319.73185,59.934591 319.97352,60.296024 319.97352,61.021889 C 319.97352,61.859433 319.58871,62.332519 319.50495,62.583783 C 319.39327,62.807131 319.25653,63.0859 319.22862,63.448832 C 319.00527,65.319348 318.07814,66.188154 316.84973,66.188154 C 316.09596,66.188154 315.53418,66.070853 315.05956,65.791673 C 315.05956,68.164718 312.35628,67.976795 312.35628,69.540219 C 312.35628,69.9869 312.6379,70.482637 312.945,70.789735 C 313.22418,71.040999 314.3125,71.460751 314.7592,71.991191 C 314.145,72.019107 313.5242,72.237096 313.16126,72.627963 C 314.1384,73.130492 314.11887,73.664358 314.23056,74.418134 C 313.28133,73.943538 312.85986,74.226943 312.60859,74.478208 C 312.30149,74.785303 312.439,75.169008 312.10398,75.64362 C 311.96439,75.280672 311.68598,74.982823 311.32303,74.982819 C 310.90427,74.982819 310.01344,75.732648 310.01344,75.955999 C 309.98553,76.626028 309.67461,76.845432 309.08832,76.92918 C 308.64164,77.403791 308.75191,77.631995 308.75191,78.106607 C 308.38898,77.74366 308.336,77.491073 308.47558,76.821049 C 308.0289,76.653532 308.11161,76.287129 308.22327,75.980028 L 308.03104,75.847868 C 307.83561,76.071216 307.58795,76.379359 306.97376,76.100174 C 306.75041,76.183938 306.46102,76.510419 306.4331,76.92918 C 306.26559,75.952055 306.57797,75.615012 306.74548,75.475417 C 306.63381,75.252068 306.77124,74.777879 307.19002,74.610368 C 307.19002,74.498703 307.14196,74.446054 307.14196,74.418134 C 306.80693,74.418134 306.52074,74.281042 306.40907,74.057698 C 306.10197,74.029781 305.65993,74.387016 305.6041,74.610368 C 305.6041,74.052007 306.01398,73.500449 306.349,73.360853 C 306.71193,72.634992 307.41614,72.493651 307.86283,72.940342 C 308.08618,73.16369 308.64622,73.42093 309.23249,73.420925 C 309.79086,73.420925 310.3184,72.939655 310.45798,72.772138 C 310.56966,72.576722 310.59438,72.527275 310.65021,72.387672 C 310.78981,72.108492 311.01634,71.771803 310.45798,71.018011 C 309.98338,70.431735 308.83992,69.316594 308.81199,68.506966 C 308.75615,67.166897 309.40313,66.38219 309.98941,65.851746 C 309.76606,65.851746 309.81593,65.851746 309.50883,65.851746 C 308.67129,65.851746 308.58412,65.347134 307.71866,65.347134 C 307.07653,65.347134 306.72145,65.966198 306.72145,66.524562 C 306.72145,67.082922 306.80235,67.194872 306.99778,67.557815 C 307.27696,68.032412 307.38578,68.304798 307.27412,68.80733 C 306.77159,68.360649 306.07835,68.084669 305.51999,68.615097 C 305.32456,69.257225 305.15392,69.509454 304.76307,69.816554 C 304.73516,69.28611 303.64967,68.442598 302.67254,69.335971 C 302.58878,69.55932 302.47753,70.032813 301.80749,70.032816 C 301.38873,70.032816 301.44635,69.984404 301.27885,69.900656 C 300.99967,70.15192 300.74599,70.402769 300.69014,70.765705 C 300.55055,70.235261 300.71097,69.787596 300.9064,69.564247 C 300.85057,69.340901 300.8516,68.782608 301.1587,68.615097 C 301.04703,68.503429 301.08238,68.558554 301.02654,68.446893 C 300.60776,68.809826 299.93606,68.837737 299.65688,68.446893 C 299.40561,68.474809 299.15123,68.637335 298.89996,69.167767 C 298.84413,68.637338 299.20137,68.025676 299.45264,67.858179 C 299.45264,67.439399 300.01163,67.105841 300.56999,67.245436 C 300.62583,67.161673 300.57423,67.100904 300.63006,67.01716 C 300.68589,66.933411 300.63006,66.969105 300.63006,66.969101 C 300.46256,66.885333 299.90141,66.858182 299.95725,66.188154 C 299.62223,66.048558 299.2915,66.208988 299.06817,66.404416 C 299.2915,65.846056 299.79854,65.651385 300.16149,65.623469 C 300.30107,65.344289 300.71909,65.347134 300.94244,65.347134 C 301.30539,65.347134 301.57957,65.540424 301.66332,65.791673 C 302.05416,66.489633 302.94458,66.716795 303.83795,66.716795 C 304.31255,66.716795 304.67897,66.38219 304.67897,65.851746 C 304.67897,65.349218 303.81392,63.870441 303.81392,63.172496 C 303.81392,62.474537 305.04289,61.15405 305.88043,61.15405 C 308.39306,61.15405 308.95047,62.187302 309.50883,62.187302 C 310.31845,62.187302 310.42651,62.050566 310.56611,61.910967 C 309.36562,60.45923 308.61099,60.493994 307.46635,59.7123 C 306.88007,59.321437 306.60097,58.668483 306.5172,58.054291 C 305.81926,58.221786 305.15816,59.150046 304.82315,59.73633 C 304.68356,59.45715 304.4334,59.255751 304.1263,59.255747 C 303.56794,59.255747 303.16798,60.011212 302.8888,60.625409 C 302.74922,59.927448 302.32877,59.231718 301.51914,59.231718 C 301.04454,59.231718 300.54139,59.457146 300.40179,59.73633 C 300.29012,60.015511 299.84633,60.456497 299.1763,60.288999 C 298.92504,60.456501 298.70702,60.544444 298.53953,61.298224 C 298.31618,60.349015 298.56002,60.17594 298.67169,59.952592 C 298.53211,59.338395 298.78441,59.119012 298.92399,58.979412 L 298.83989,58.811208 C 298.50488,58.922888 297.95013,58.865998 297.78261,58.558902 C 297.36383,58.558902 297.25257,58.621059 296.91756,59.123587 C 296.97339,58.537295 297.31153,58.037705 297.67448,57.898101 C 297.81406,57.563085 298.31689,57.417518 298.70773,57.417518 C 298.73565,57.30585 298.75579,57.309029 298.75579,57.225285 C 298.50454,57.085685 298.31549,56.775113 298.37132,56.384265 C 298.06423,56.049253 297.69747,56.24856 297.4462,56.360236 C 297.94873,55.857707 298.50912,55.656304 298.89996,55.879653 C 299.76542,55.600473 300.0417,55.993758 300.12545,56.468367 C 300.23713,57.026727 301.08232,57.081114 301.97569,57.081109 C 303.87413,57.081109 306.9448,55.29704 306.72145,53.873219 C 306.24684,53.761536 306.21933,53.789117 305.8564,53.789117 C 304.82343,53.789117 303.53343,55.074677 302.52837,55.074677 C 303.03089,54.516312 302.72164,53.951351 302.9729,53.476739 C 302.44246,53.476739 301.88319,53.840724 300.8223,53.729044 C 301.15731,53.533613 301.41101,52.778856 301.41101,52.527588 C 301.41101,52.248408 301.41427,51.722616 300.26963,51.722612 C 300.15796,51.750532 299.84417,51.866787 299.62084,51.866787 C 299.34166,51.866787 298.58759,51.808167 298.58758,51.193971 C 298.19674,51.110222 297.94908,51.223278 297.5303,51.530379 C 297.61406,51.111614 298.39639,50.60102 298.64766,50.545183 C 298.78726,50.238083 299.0929,50.100645 299.2604,50.100645 C 299.28832,49.933145 299.29645,50.103848 299.29645,49.908411 C 298.93351,49.852576 298.40348,49.71341 298.4314,49.043362 C 298.15222,48.792114 297.97631,48.731676 297.3621,48.899188 C 298.08798,48.340827 298.39639,48.427067 298.64766,48.538751 C 299.20602,48.092054 299.68551,48.319305 299.82509,48.514722 C 299.90885,48.430969 299.96537,48.430265 299.99329,48.346518 C 299.85369,47.955669 299.93392,47.540853 300.10142,47.373337 C 300.10142,46.926657 299.87954,46.78427 299.48868,46.700521 C 300.32622,46.700521 300.66326,46.925953 300.94244,47.205133 C 301.41705,47.288882 301.74742,47.703009 301.74742,48.01011 C 301.77533,48.819734 300.90912,49.355326 302.52837,50.22079 C 303.05881,50.472054 303.76086,50.746244 304.48674,50.941665 C 305.21262,51.137097 306.09809,51.470306 306.4331,51.470306 C 306.18184,51.023629 306.29497,50.607414 305.82036,50.160717 C 306.3508,50.104886 306.99174,50.293228 307.46635,50.37698 C 307.38259,49.762783 307.5247,49.762495 307.10592,49.343727 C 307.46886,49.399563 307.9681,49.408045 308.2473,49.463872 C 310.1178,49.659305 310.14699,48.710212 310.48201,47.565571 C 309.86781,47.593487 308.77989,47.76059 307.80276,48.43062 C 307.8586,48.067691 307.77873,47.812602 307.77873,47.505498 C 307.77873,46.947138 308.22007,46.832681 308.4155,46.832681 C 308.52717,46.832681 308.80879,46.808652 309.00422,46.808652 C 309.423,46.808652 309.98837,46.33238 309.73711,45.438992 C 309.59751,44.992311 309.25902,44.710697 308.89609,44.850278 C 308.61691,44.906125 308.55795,44.914941 308.13917,45.054525 C 307.83207,45.16619 307.72255,45.416338 307.69463,45.75137 C 307.63878,45.61177 307.52219,45.190239 307.46635,45.078554 C 307.38259,44.938974 307.38967,44.877137 307.25009,44.597972 C 307.22217,44.486292 307.21793,44.493377 307.19002,44.38171 C 306.96667,43.935013 307.27585,43.576399 307.69463,43.492631 C 308.00173,43.408884 308.53702,43.291936 308.87206,43.180252 C 309.51417,42.984836 309.70955,42.734318 309.82121,42.399305 C 309.98872,42.064273 310.06393,41.918723 310.65021,41.918723 C 310.84564,41.918723 311.52055,41.918723 311.82764,41.918723 C 312.72102,41.918723 313.72066,41.170675 313.41356,40.416901 z M 350.44247,41.426126 C 350.21912,42.26367 350.21093,43.288383 351.35558,43.288383 C 352.24895,43.288383 353.78391,42.542773 354.11893,42.375276 L 354.2631,42.651611 L 354.23907,42.67564 L 354.20303,42.67564 L 354.179,42.69967 L 354.15498,42.735713 L 354.07087,42.759742 L 354.0108,42.819816 L 353.9267,42.867873 L 353.84259,42.927947 L 353.75849,42.988019 L 353.67439,43.036078 L 353.56626,43.12018 L 353.45812,43.180252 L 353.33798,43.264354 L 353.20582,43.348456 L 353.08568,43.408529 L 352.95352,43.492631 L 352.80934,43.564718 L 352.66517,43.64882 L 352.53301,43.732922 L 352.38883,43.792995 L 352.22063,43.877097 L 352.08847,43.961199 L 351.92026,44.021272 L 351.77608,44.06933 L 351.60789,44.153432 L 351.43968,44.213505 L 351.30752,44.237534 L 351.13932,44.297608 L 350.97111,44.321637 L 350.82694,44.357681 L 350.65873,44.38171 L 350.49054,44.405739 L 350.35837,44.405739 C 349.46499,44.405739 349.12087,43.8789 349.12087,43.348456 C 349.12087,42.510912 349.77243,42.23575 350.44247,41.426126 z M 311.26296,42.579524 C 310.85116,42.586506 310.47194,42.609727 310.45798,42.651611 C 310.3184,42.90286 310.40248,43.321233 310.54208,43.51666 L 310.56611,43.51666 L 310.60216,43.51666 L 310.62618,43.51666 L 310.65021,43.51666 L 310.68626,43.492631 L 310.71029,43.492631 L 310.73432,43.492631 L 310.77036,43.492631 L 310.79439,43.456587 L 310.85446,43.456587 L 310.87849,43.456587 L 310.93856,43.432558 L 311.01065,43.408529 L 311.07072,43.372485 L 311.1308,43.348456 L 311.2149,43.324427 L 311.26296,43.288383 L 311.34706,43.264354 L 311.3831,43.264354 L 311.40713,43.240325 L 311.43116,43.240325 L 311.4672,43.204282 L 311.49123,43.180252 L 311.51526,43.180252 C 311.85028,42.984836 311.93716,42.842802 312.27218,42.591538 C 312.11863,42.577578 311.67475,42.572542 311.26296,42.579524 z M 305.6882,44.489841 C 305.49278,45.299465 305.48847,46.304041 306.57727,46.304041 C 307.44274,46.304041 308.9254,45.578587 309.23249,45.438992 L 309.34063,45.715327 L 309.3166,45.715327 L 309.3166,45.75137 L 309.28055,45.75137 L 309.23249,45.775399 L 309.17242,45.799429 L 309.11235,45.859501 L 309.04026,45.883531 L 308.98019,45.943603 L 308.87206,46.003677 L 308.78796,46.051734 L 308.70385,46.135837 L 308.58371,46.19591 L 308.47558,46.280011 L 308.36745,46.340084 L 308.22327,46.412172 L 308.11514,46.496274 L 307.97096,46.556346 L 307.8388,46.640448 L 307.69463,46.72455 L 307.55045,46.784623 L 307.41829,46.868725 L 307.27412,46.916784 L 307.14196,47.000886 L 306.97376,47.060958 L 306.82958,47.121031 L 306.66138,47.169089 L 306.5172,47.229162 L 306.349,47.253191 L 306.21684,47.313264 L 306.04863,47.337293 L 305.90446,47.337293 L 305.7723,47.373337 L 305.6041,47.373337 C 304.73863,47.401269 304.42667,46.838706 304.42667,46.364113 C 304.42667,45.554486 305.04609,45.271549 305.6882,44.489841 z M 332.18032,75.427358 L 284.21816,121.87569 C 318.38992,126.56592 348.28145,126.90591 371.81639,126.93383 L 371.85243,126.93383 C 371.85243,126.93383 372.04536,125.33742 372.21286,123.77399 L 372.2369,123.66586 L 372.27294,123.5337 L 372.29698,123.38953 L 372.321,123.24535 L 372.38108,123.13722 L 372.40511,123.02909 L 372.46518,122.88492 L 372.52525,122.77678 L 372.57331,122.65664 L 372.65741,122.5485 L 372.71748,122.44038 L 372.80158,122.33224 L 372.88569,122.21209 L 372.96979,122.12799 L 373.05389,122.01987 L 373.13799,121.93576 L 373.24613,121.85166 L 373.33023,121.76756 L 373.43836,121.68346 L 373.5585,121.59935 L 373.66663,121.51525 L 373.77476,121.46719 L 373.8829,121.40711 L 374.00304,121.34704 L 374.11118,121.29899 L 374.21931,121.23892 L 374.36348,121.21489 L 374.47161,121.15482 L 374.61579,121.13078 L 374.72391,121.09474 L 374.8681,121.07071 L 375.00025,121.07071 L 377.57137,120.79438 L 332.18032,75.427358 z M 335.58045,85.027 C 336.19467,85.138683 336.44481,86.122059 336.2773,86.540836 C 336.55647,86.540836 337.54376,86.339791 337.76711,86.144355 C 337.76711,86.786483 337.23283,87.630982 336.84198,87.826395 C 337.31659,87.882242 338.15261,87.793553 338.40387,87.598118 C 338.23636,88.100646 337.70563,89.188616 337.37061,89.328215 C 338.23608,89.607396 338.73779,90.049371 339.10072,91.082343 C 338.48652,90.803163 338.12121,91.142058 337.56285,91.058314 C 338.70749,92.370471 339.10211,94.35239 339.43713,94.854918 C 339.13002,94.687402 338.51416,94.349621 338.06747,94.182102 C 338.54208,95.270913 337.85156,96.335144 337.9353,96.921422 C 337.60029,96.698076 337.15368,96.479732 336.98616,96.200553 C 336.81865,96.647244 336.42605,97.474726 336.56564,98.591448 C 336.28646,98.28435 335.77588,98.066006 335.58045,97.870572 C 335.13376,98.48477 334.8836,98.906187 334.8836,100.4417 C 334.8836,102.56346 335.89458,104.59409 336.31334,105.40371 C 336.98336,106.63212 337.14269,107.67231 337.22645,108.11901 C 337.44979,108.92863 338.04268,109.48866 338.82438,109.48866 C 339.57817,109.48866 340.21807,108.79223 340.21807,107.92677 C 340.21807,106.39129 338.3438,105.40458 338.3438,102.72446 C 338.3438,100.93769 339.7177,100.07249 339.77353,98.92786 C 339.77353,97.922811 338.88166,98.573465 338.21163,98.098853 C 339.0771,97.931355 339.58054,96.977611 340.36225,97.005523 C 341.03227,97.061355 341.19549,97.399509 341.25133,97.762441 C 341.30716,98.264973 341.00258,98.788624 340.89089,99.011961 C 341.64468,98.341931 341.97221,97.339838 341.9722,96.837321 C 341.9722,96.083522 340.91596,95.213331 341.16723,93.761592 C 341.22307,93.594077 341.21952,93.596922 341.27535,93.485258 C 341.58244,95.132408 343.90654,95.554478 343.90654,97.173733 L 343.90654,97.257834 L 343.90654,97.317905 L 343.90654,97.402006 L 343.90654,97.450066 L 343.8705,97.510137 L 343.8705,97.558197 L 343.84647,97.618268 L 343.84647,97.67834 L 343.82244,97.7264 L 343.82244,97.762441 L 343.79842,97.810501 L 343.79842,97.870572 L 343.73835,97.95468 L 343.67828,98.038782 L 343.63021,98.098853 L 343.57014,98.182954 L 343.51006,98.231014 L 343.46201,98.291085 L 343.37791,98.351156 L 343.31783,98.399216 L 343.23373,98.459287 L 343.14963,98.483317 L 343.06552,98.543388 L 342.98142,98.591448 L 342.81323,98.675549 L 342.64501,98.75965 L 342.56091,98.819729 L 342.47681,98.8798 L 342.39271,98.92786 L 342.30861,98.987931 L 342.22451,99.048004 L 342.1404,99.132105 L 342.0563,99.180165 L 341.9722,99.264266 L 341.92414,99.348367 L 341.84004,99.468517 C 342.67759,99.133497 343.59417,99.292112 343.59417,100.21342 C 343.59417,101.02305 342.34361,101.53251 342.09235,101.89545 C 341.95274,102.09087 341.87185,102.19262 341.81601,102.38806 C 341.64849,101.82969 341.92415,101.42125 341.92414,101.0304 C 341.92414,100.61162 341.61391,100.41767 341.16723,100.41767 C 340.52511,100.41767 338.7448,101.97833 339.8336,104.5747 C 339.74984,103.65341 340.07461,103.03615 340.2421,102.86863 C 340.3817,102.72905 340.52233,102.36297 340.4944,102.11171 C 340.85734,102.75383 340.91491,103.03893 340.91491,103.54145 C 340.91491,104.63026 340.10356,104.88244 340.4944,105.69206 C 340.55024,105.91541 340.64317,106.0818 340.78275,106.38891 C 340.78275,105.99804 340.83506,105.65887 340.89089,105.37968 C 340.94673,105.1005 341.3637,104.60192 341.41953,104.4065 C 341.47536,104.21107 341.50329,103.98495 341.41953,103.73368 C 341.81039,104.18038 342.03228,104.5697 342.03228,105.29558 C 342.03228,106.1052 341.67537,106.58607 341.5637,106.80941 C 341.47993,107.06068 341.33931,107.27972 341.3114,107.69849 C 341.06013,109.51316 340.16903,110.35371 338.96856,110.35371 C 338.24269,110.35371 337.67702,110.23641 337.20242,109.95723 C 337.20242,112.30235 334.54719,112.10631 334.54719,113.66973 C 334.54719,114.06058 334.82881,114.56798 335.13591,114.84716 C 335.41509,115.15425 336.48328,115.5422 336.90205,116.07266 C 336.31577,116.10056 335.69108,116.30265 335.32814,116.72144 C 336.30527,117.16812 336.28577,117.72566 336.39744,118.45154 C 335.44822,118.00483 335.02672,118.24833 334.77547,118.4996 C 334.4963,118.8067 334.60199,119.23034 334.29489,119.67702 C 334.12738,119.31409 333.90868,118.98019 333.48992,118.98019 C 333.09907,118.98019 332.26831,119.73003 332.24039,119.95336 C 332.21249,120.59549 331.89766,120.84667 331.3393,120.90252 C 330.89263,121.37713 331.01103,121.62511 331.03894,122.0439 C 330.64809,121.68096 330.58698,121.46052 330.72656,120.81841 C 330.3078,120.65091 330.36259,120.2845 330.47426,119.97739 L 330.30605,119.86925 C 330.08271,120.06468 329.83116,120.34879 329.2728,120.09754 C 329.04945,120.18128 328.77597,120.51165 328.72013,120.90252 C 328.55262,119.95328 328.85297,119.62437 329.02049,119.48479 C 328.93675,119.28935 329.04626,118.81128 329.46504,118.64377 C 329.46504,118.53208 329.44489,118.50736 329.41697,118.45154 C 329.08196,118.45154 328.80387,118.31054 328.72013,118.11513 C 328.3851,118.03138 327.95897,118.42043 327.90314,118.64377 C 327.90314,118.11333 328.32892,117.55789 328.63602,117.41829 C 328.99898,116.69243 329.69505,116.57901 330.11383,116.99778 C 330.33716,117.22112 330.88908,117.46635 331.44744,117.46634 C 332.03371,117.46634 332.53722,117.00097 332.64889,116.80554 C 332.78848,116.63803 332.81743,116.60871 332.9012,116.46914 C 333.01286,116.16203 333.23517,115.85327 332.64889,115.09947 C 332.20219,114.5411 331.06297,113.41819 331.06297,112.63648 C 331.03505,111.32434 331.61808,110.57177 332.20435,110.04134 C 332.00893,110.04134 332.06691,110.04133 331.75981,110.04134 C 330.92228,110.04134 330.84324,109.51269 330.00569,109.51269 C 329.36358,109.51269 328.99646,110.15968 328.99646,110.69012 C 328.99646,111.22057 329.11342,111.35231 329.30885,111.68733 C 329.56011,112.16193 329.63289,112.45022 329.54914,112.92483 C 329.07452,112.50607 328.37739,112.2541 327.81904,112.75663 C 327.59568,113.37082 327.46497,113.61495 327.07413,113.92204 C 327.04621,113.39159 325.98475,112.58802 325.00763,113.45347 C 324.92386,113.70474 324.83665,114.17435 324.16661,114.17435 C 323.77576,114.17435 323.83338,114.08989 323.63796,114.00614 C 323.3867,114.2574 323.12911,114.51215 323.07328,114.84716 C 322.93368,114.34463 323.11003,113.90122 323.27753,113.70578 C 323.2217,113.4266 323.25065,112.89621 323.52983,112.75663 C 323.44608,112.64494 323.46941,112.728 323.38566,112.58842 C 322.96688,112.92343 322.31921,112.97927 322.04003,112.58842 C 321.78876,112.61634 321.57042,112.77885 321.31915,113.3093 C 321.26332,112.77885 321.62055,112.16332 321.87182,112.02374 C 321.87182,111.60496 322.40679,111.24737 322.96515,111.38697 C 323.02098,111.3032 322.96939,111.26647 323.02522,111.18272 C 323.08107,111.09897 322.98918,111.13466 322.98918,111.13466 C 322.82168,111.05091 322.32838,111.05168 322.32838,110.35371 C 322.02127,110.24204 321.71071,110.40246 321.48735,110.56997 C 321.71071,110.01162 322.18169,109.84486 322.54464,109.78903 C 322.68422,109.56568 323.10614,109.51269 323.30156,109.51269 C 323.72033,109.51269 323.9666,109.70597 324.02243,109.95723 C 324.41327,110.62726 325.3355,110.90638 326.17304,110.90638 C 326.61972,110.90638 327.01406,110.54386 327.01406,110.04134 C 327.01406,109.5388 326.14901,108.05616 326.14901,107.38612 C 326.14901,106.68817 327.37374,105.40371 328.15544,105.40371 C 330.64016,105.40371 331.20146,106.43697 331.75981,106.43696 C 332.54153,106.43696 332.65737,106.30022 332.76904,106.16063 C 331.59649,104.7368 330.87009,104.76381 329.75338,104.01002 C 329.19502,103.59126 328.9159,102.9503 328.80423,102.36403 C 328.13419,102.53154 327.4572,103.42374 327.12219,104.01002 C 326.98261,103.73084 326.75648,103.56547 326.44937,103.56548 C 325.91893,103.56548 325.53523,104.2969 325.28396,104.91111 C 325.08854,104.18524 324.67196,103.54146 323.89027,103.54145 C 323.44358,103.54145 322.93652,103.73084 322.79694,104.01002 C 322.68526,104.31712 322.23762,104.74222 321.59548,104.5747 C 321.34422,104.74221 321.12623,104.79409 320.95872,105.54788 C 320.73537,104.62659 320.95128,104.46164 321.09088,104.2383 C 320.95128,103.62411 321.23151,103.40469 321.34318,103.26512 L 321.25908,103.09691 C 320.92407,103.20858 320.36543,103.17574 320.22583,102.86863 C 319.80706,102.84072 319.6958,102.89475 319.36078,103.39728 C 319.41663,102.83891 319.75476,102.36332 320.1177,102.19582 C 320.2573,101.83289 320.72793,101.72725 321.09088,101.72725 C 321.14671,101.64351 321.18311,101.6428 321.21102,101.55905 C 320.95976,101.41945 320.73468,101.10498 320.79051,100.74206 C 320.48341,100.37911 320.14457,100.60635 319.86539,100.71803 C 320.36792,100.2155 320.92831,100.02612 321.31915,100.24946 C 322.15669,99.970278 322.43684,100.35543 322.52061,100.80213 C 322.60436,101.36049 323.46935,101.41488 324.33481,101.41488 C 326.20532,101.41488 329.21981,99.662964 328.99646,98.267055 C 328.54977,98.155374 328.49046,98.182954 328.15544,98.182954 C 327.12247,98.182954 325.8685,99.412683 324.86345,99.468517 C 325.36598,98.882231 325.09277,98.313388 325.34403,97.894602 C 324.81359,97.866689 324.2264,98.234571 323.19343,98.122883 C 323.55636,97.927465 323.77012,97.200608 323.77012,96.921422 C 323.77012,96.670163 323.7695,96.164504 322.65277,96.164504 C 322.5411,96.192424 322.26337,96.308684 322.04003,96.308684 C 321.76085,96.308684 321.00678,96.222145 321.00678,95.635867 C 320.64384,95.552114 320.36437,95.669063 319.97352,95.948242 C 320.05727,95.557397 320.8156,95.027005 321.06685,94.999091 C 321.20645,94.664077 321.51208,94.550671 321.67959,94.578583 C 321.70751,94.411083 321.70362,94.573635 321.70362,94.350306 C 321.34067,94.294459 320.83857,94.163409 320.83857,93.521301 C 320.58731,93.270037 320.41951,93.209625 319.80531,93.377127 C 320.55911,92.818762 320.8156,92.905029 321.06685,93.016689 C 321.6252,92.597908 322.07676,92.813129 322.24427,92.980646 C 322.3001,92.896897 322.34852,92.896205 322.37643,92.812442 C 322.26477,92.421596 322.32907,92.030791 322.49658,91.86329 C 322.49658,91.416594 322.2906,91.286257 321.87182,91.202489 C 322.70936,91.202489 323.0464,91.400001 323.32558,91.707101 C 323.80018,91.790849 324.10654,92.208864 324.10653,92.488048 C 324.13445,93.269756 323.29615,93.825148 324.88748,94.662685 C 325.39001,94.913948 326.09595,95.164115 326.82183,95.359533 C 327.51977,95.58288 328.37733,95.888171 328.76819,95.888171 C 328.46109,95.469413 328.5781,95.021373 328.13141,94.602612 C 328.63393,94.574681 329.27876,94.747144 329.75338,94.830888 C 329.6417,94.216692 329.79971,94.212509 329.38093,93.821665 C 329.71595,93.877497 330.21911,93.877847 330.49828,93.905767 C 332.34089,94.101198 332.34604,93.184254 332.70897,92.067537 C 332.06685,92.095455 331.03087,92.226503 330.05375,92.896544 C 330.1375,92.561512 330.02972,92.286641 330.02972,92.007465 C 330.02972,91.449101 330.47106,91.334653 330.66649,91.334649 C 330.75024,91.334649 331.03185,91.286587 331.25521,91.286591 C 331.64605,91.286591 332.20331,90.858361 331.95205,89.964988 C 331.81246,89.518292 331.50999,89.276625 331.14707,89.388289 C 330.86788,89.472036 330.78101,89.468838 330.39016,89.580522 C 330.11097,89.692187 329.99756,89.974161 329.96964,90.253338 C 329.91381,90.113742 329.7813,89.716219 329.75338,89.604552 C 329.69753,89.492867 329.63677,89.415167 329.52511,89.135982 C 329.49718,89.052231 329.49297,89.043411 329.46504,88.931735 C 329.26962,88.485055 329.55477,88.098493 329.94561,88.042657 C 330.25271,87.986825 330.7799,87.850066 331.087,87.766321 C 331.75704,87.542974 331.9326,87.320388 332.07219,86.985375 C 332.21177,86.622447 332.28701,86.48076 332.9012,86.480763 C 333.0687,86.480763 333.71957,86.54084 334.0546,86.540836 C 334.92005,86.540836 335.88757,85.780792 335.58045,85.027 z M 333.44185,87.165593 C 333.04403,87.172572 332.67681,87.195804 332.64889,87.237681 C 332.53722,87.461029 332.62133,87.879397 332.733,88.10273 L 332.76904,88.10273 L 332.79307,88.10273 L 332.8171,88.066686 L 332.85314,88.066686 L 332.87717,88.066686 L 332.9012,88.066686 L 332.93725,88.042657 L 332.96127,88.042657 L 332.9853,88.042657 L 333.02134,88.042657 L 333.04537,88.018628 L 333.0694,88.018628 L 333.15351,87.982584 L 333.21358,87.982584 L 333.29768,87.958555 L 333.34573,87.934526 L 333.42984,87.898482 L 333.48992,87.874452 L 333.51394,87.874452 L 333.54999,87.850424 L 333.57402,87.850424 L 333.59805,87.826395 L 333.63409,87.790351 L 333.65812,87.790351 L 333.68214,87.766321 L 333.71819,87.766321 C 334.05321,87.542974 334.10405,87.428876 334.43907,87.177608 C 334.27155,87.163652 333.83969,87.158615 333.44185,87.165593 z M 327.98724,89.05188 C 327.7639,89.833593 327.79141,90.806004 328.85228,90.806008 C 329.71775,90.806008 331.14846,90.104569 331.48348,89.964988 L 331.59161,90.217294 L 331.56758,90.253338 L 331.53154,90.253338 L 331.48348,90.277367 L 331.4234,90.33744 L 331.36333,90.361469 L 331.27923,90.421542 L 331.20714,90.4696 L 331.12304,90.529673 L 331.03894,90.589746 L 330.95484,90.637804 L 330.8347,90.721906 L 330.72656,90.781979 L 330.61842,90.86608 L 330.47426,90.950183 L 330.36613,90.998241 L 330.22195,91.082343 L 330.11383,91.166445 L 329.96964,91.226518 L 329.83748,91.31062 L 329.69331,91.370692 L 329.54914,91.454794 L 329.38093,91.502853 L 329.24878,91.562925 L 329.10459,91.622998 L 328.93639,91.671057 L 328.80423,91.73113 L 328.66006,91.779188 L 328.49185,91.815232 L 328.35969,91.839261 L 328.21551,91.86329 L 328.07134,91.86329 L 327.90314,91.86329 C 327.06559,91.891207 326.76175,91.368609 326.76176,90.86608 C 326.76176,90.084373 327.37305,89.805658 327.98724,89.05188 z M 371.79236,143.3217 C 348.31325,143.3217 321.85009,143.48534 287.67836,148.17558 C 292.34067,174.80944 322.77598,234.97168 371.74431,260.7401 C 374.17318,240.80658 377.99188,192.23157 377.99188,161.01915 L 377.93181,149.77352 L 377.93181,149.60532 L 374.97623,149.29294 C 373.52447,149.15334 372.43656,147.95729 372.29698,146.50556 C 372.15739,145.1655 371.90049,143.34573 371.90049,143.34573 L 371.93653,143.3217 C 371.7411,143.3217 372.04363,143.3217 371.79236,143.3217 z M 400.13474,143.3217 L 400.09869,143.34573 C 400.09869,143.34573 399.87785,145.22133 399.73826,146.50556 C 399.54284,147.92938 398.5429,149.15334 397.11907,149.29294 L 394.31968,149.58129 L 394.29565,149.58129 L 394.12745,161.01915 C 394.12745,192.23157 398.15041,240.80658 400.57927,260.7401 C 449.54762,234.97168 479.98291,174.80944 484.64522,148.17558 C 450.38974,143.48534 423.64175,143.3217 400.13474,143.3217 z "
       id="path1109" />
  </g>
</svg>
