<?xml version="1.0" encoding="UTF-8" standalone="no"?>
<!-- Created with Inkscape (http://www.inkscape.org/) -->
<svg
   xmlns:dc="http://purl.org/dc/elements/1.1/"
   xmlns:cc="http://web.resource.org/cc/"
   xmlns:rdf="http://www.w3.org/1999/02/22-rdf-syntax-ns#"
   xmlns:svg="http://www.w3.org/2000/svg"
   xmlns="http://www.w3.org/2000/svg"
   xmlns:sodipodi="http://sodipodi.sourceforge.net/DTD/sodipodi-0.dtd"
   xmlns:inkscape="http://www.inkscape.org/namespaces/inkscape"
   version="1.0"
   width="237.36555"
   height="145.26491"
   id="svg2"
   sodipodi:version="0.32"
   inkscape:version="0.44.1"
   sodipodi:docname="anycast.svg">

  <metadata
     id="metadata32">
    <rdf:RDF>
      <cc:Work
         rdf:about="">
        <dc:format>image/svg+xml</dc:format>
        <dc:type
           rdf:resource="http://purl.org/dc/dcmitype/StillImage" />
      </cc:Work>
    </rdf:RDF>
  </metadata>
  <sodipodi:namedview
     inkscape:window-height="573"
     inkscape:window-width="853"
     inkscape:pageshadow="2"
     inkscape:pageopacity="0.0"
     guidetolerance="10.0"
     gridtolerance="10.0"
     objecttolerance="10.0"
     borderopacity="1.0"
     bordercolor="#666666"
     pagecolor="#ffffff"
     id="base"
     inkscape:zoom="2.5952586"
     inkscape:cx="118.68278"
     inkscape:cy="72.632454"
     inkscape:window-x="88"
     inkscape:window-y="116"
     inkscape:current-layer="svg2" />
  <defs
     id="defs4" />
  <path
     id="path1890"
     style="fill:none;fill-rule:evenodd;stroke:black;stroke-width:0.5;stroke-linecap:butt;stroke-linejoin:miter;stroke-miterlimit:4;stroke-dasharray:none;stroke-opacity:1"
     d="M 6.050769,59.641923 L 63.629464,82.87543" />
  <path
     id="path1892"
     style="fill:none;fill-rule:evenodd;stroke:black;stroke-width:0.5;stroke-linecap:butt;stroke-linejoin:miter;stroke-miterlimit:4;stroke-dasharray:none;stroke-opacity:1"
     d="M 40.395956,20.245974 L 7.060922,59.641923" />
  <path
     id="path2807"
     style="fill:none;fill-rule:evenodd;stroke:black;stroke-width:2.5;stroke-linecap:butt;stroke-linejoin:miter;stroke-miterlimit:4;stroke-dasharray:none;stroke-opacity:1"
     d="M 123.22846,48.530245 L 7.565998,59.641923" />
  <path
     id="path1894"
     style="fill:none;fill-rule:evenodd;stroke:black;stroke-width:0.5;stroke-linecap:butt;stroke-linejoin:miter;stroke-opacity:1;stroke-miterlimit:4;stroke-dasharray:none"
     d="M 64.139062,82.87091 L 122.9714,48.282228" />
  <path
     id="path5496"
     style="fill:none;fill-rule:evenodd;stroke:black;stroke-width:0.5;stroke-linecap:butt;stroke-linejoin:miter;stroke-opacity:1;stroke-miterlimit:4;stroke-dasharray:none"
     d="M 127.26907,133.38306 L 124.23862,48.025169" />
  <path
     id="path1896"
     style="fill:none;fill-rule:evenodd;stroke:black;stroke-width:0.5;stroke-linecap:butt;stroke-linejoin:miter;stroke-miterlimit:4;stroke-dasharray:none;stroke-opacity:1"
     d="M 63.629464,82.87543 C 63.629464,82.87543 125.24877,132.37291 127.26907,133.38306" />
  <path
     id="path3714"
     style="fill:none;fill-rule:evenodd;stroke:black;stroke-width:0.5;stroke-linecap:butt;stroke-linejoin:miter;stroke-miterlimit:4;stroke-dasharray:none;stroke-opacity:1"
     d="M 175.25132,101.56325 L 123.73354,48.530245" />
  <path
     id="path1898"
     style="fill:none;fill-rule:evenodd;stroke:black;stroke-width:0.5;stroke-linecap:butt;stroke-linejoin:miter;stroke-opacity:1;stroke-miterlimit:4;stroke-dasharray:none"
     d="M 127.26907,131.36275 L 175.25132,101.56325" />
  <path
     id="path1900"
     style="fill:none;fill-rule:evenodd;stroke:black;stroke-width:0.5;stroke-linecap:butt;stroke-linejoin:miter;stroke-opacity:1;stroke-miterlimit:4;stroke-dasharray:none"
     d="M 124.23862,9.639372 L 7.060922,59.641923" />
  <path
     id="path6385"
     style="fill:none;fill-rule:evenodd;stroke:black;stroke-width:0.5;stroke-linecap:butt;stroke-linejoin:miter;stroke-opacity:1;stroke-miterlimit:4;stroke-dasharray:none"
     d="M 125.24877,10.144449 L 123.73354,48.530245" />
  <path
     id="path1902"
     style="fill:none;fill-rule:evenodd;stroke:black;stroke-width:0.5;stroke-linecap:butt;stroke-linejoin:miter;stroke-miterlimit:4;stroke-dasharray:none;stroke-opacity:1"
     d="M 39.89088,19.740898 L 125.24877,10.144449" />
  <path
     id="path8278"
     style="fill:none;fill-rule:evenodd;stroke:black;stroke-width:0.5;stroke-linecap:butt;stroke-linejoin:miter;stroke-miterlimit:4;stroke-dasharray:none;stroke-opacity:1"
     d="M 213.13204,23.781508 L 124.74369,10.649525" />
  <path
     id="path1904"
     style="fill:none;fill-rule:evenodd;stroke:black;stroke-width:2.5;stroke-linecap:butt;stroke-linejoin:miter;stroke-miterlimit:4;stroke-dasharray:none;stroke-opacity:1"
     d="M 123.73354,48.025169 L 213.13204,23.781508" />
  <path
     id="path4607"
     style="fill:none;fill-rule:evenodd;stroke:black;stroke-width:0.5;stroke-linecap:butt;stroke-linejoin:miter;stroke-opacity:1;stroke-miterlimit:4;stroke-dasharray:none"
     d="M 175.25132,101.05817 L 213.13204,24.286585" />
  <path
     id="path4605"
     style="fill:none;fill-rule:evenodd;stroke:black;stroke-width:0.5;stroke-linecap:butt;stroke-linejoin:miter;stroke-opacity:1;stroke-miterlimit:4;stroke-dasharray:none"
     d="M 213.13204,24.286585 L 231.81987,74.794215" />
  <path
     id="path1906"
     style="fill:none;fill-rule:evenodd;stroke:black;stroke-width:0.5;stroke-linecap:butt;stroke-linejoin:miter;stroke-miterlimit:4;stroke-dasharray:none;stroke-opacity:1"
     d="M 231.81987,74.794215 L 175.25132,101.05817" />
  <path
     id="path1872"
     style="fill:white;fill-opacity:1;fill-rule:nonzero;stroke:black;stroke-width:2;stroke-linecap:butt;stroke-linejoin:bevel;stroke-miterlimit:4;stroke-dasharray:none;stroke-dashoffset:0;stroke-opacity:1"
     d="M 45.44671,20.245978 C 45.44671,23.035438 43.18541,25.296743 40.39595,25.296743 C 37.60648,25.296743 35.34518,23.035438 35.34518,20.245978 C 35.34518,17.456518 37.60648,15.195213 40.39595,15.195213 C 43.18541,15.195213 45.44671,17.456518 45.44671,20.245978 z " />
  <path
     id="path1874"
     style="fill:white;fill-opacity:1;fill-rule:nonzero;stroke:black;stroke-width:2;stroke-linecap:butt;stroke-linejoin:bevel;stroke-miterlimit:4;stroke-dasharray:none;stroke-dashoffset:0;stroke-opacity:1"
     d="M 236.36554,75.804368 C 236.36554,78.593828 234.10424,80.855133 231.31478,80.855133 C 228.52531,80.855133 226.26401,78.593828 226.26401,75.804368 C 226.26401,73.014908 228.52531,70.753603 231.31478,70.753603 C 234.10424,70.753603 236.36554,73.014908 236.36554,75.804368 z " />
  <path
     id="path1876"
     style="fill:white;fill-opacity:1;fill-rule:nonzero;stroke:black;stroke-width:2;stroke-linecap:butt;stroke-linejoin:bevel;stroke-miterlimit:4;stroke-dasharray:none;stroke-dashoffset:0;stroke-opacity:1"
     d="M 129.28937,10.144448 C 129.28937,12.933908 127.02807,15.195213 124.23861,15.195213 C 121.44914,15.195213 119.18784,12.933908 119.18784,10.144448 C 119.18784,7.354988 121.44914,5.093683 124.23861,5.093683 C 127.02807,5.093683 129.28937,7.354988 129.28937,10.144448 z " />
  <path
     id="path1878"
     style="fill:white;fill-opacity:1;fill-rule:nonzero;stroke:black;stroke-width:2;stroke-linecap:butt;stroke-linejoin:bevel;stroke-miterlimit:4;stroke-dasharray:none;stroke-dashoffset:0;stroke-opacity:1"
     d="M 131.30968,132.37291 C 131.30968,135.16237 129.04838,137.42367 126.25892,137.42367 C 123.46945,137.42367 121.20815,135.16237 121.20815,132.37291 C 121.20815,129.58345 123.46945,127.32214 126.25892,127.32214 C 129.04838,127.32214 131.30968,129.58345 131.30968,132.37291 z " />
  <path
     id="path1880"
     style="fill:white;fill-opacity:1;fill-rule:nonzero;stroke:black;stroke-width:2;stroke-linecap:butt;stroke-linejoin:bevel;stroke-miterlimit:4;stroke-dasharray:none;stroke-dashoffset:0;stroke-opacity:1"
     d="M 68.68022,82.875438 C 68.68022,85.664898 66.41892,87.926203 63.62946,87.926203 C 60.83999,87.926203 58.57869,85.664898 58.57869,82.875438 C 58.57869,80.085978 60.83999,77.824673 63.62946,77.824673 C 66.41892,77.824673 68.68022,80.085978 68.68022,82.875438 z " />
  <path
     id="path1882"
     style="fill:black;fill-opacity:1;fill-rule:nonzero;stroke:black;stroke-width:2;stroke-linecap:butt;stroke-linejoin:bevel;stroke-miterlimit:4;stroke-dasharray:none;stroke-dashoffset:0;stroke-opacity:1"
     d="M 11.10154,59.641928 C 11.10154,62.431388 8.84024,64.692693 6.05078,64.692693 C 3.26131,64.692693 1.00001,62.431388 1.00001,59.641928 C 1.00001,56.852468 3.26131,54.591163 6.05078,54.591163 C 8.84024,54.591163 11.10154,56.852468 11.10154,59.641928 z " />
  <path
     id="path1884"
     style="fill:white;fill-opacity:1;fill-rule:nonzero;stroke:black;stroke-width:2;stroke-linecap:butt;stroke-linejoin:bevel;stroke-miterlimit:4;stroke-dasharray:none;stroke-dashoffset:0;stroke-opacity:1"
     d="M 179.797,102.06833 C 179.797,104.85779 177.5357,107.11909 174.74624,107.11909 C 171.95677,107.11909 169.69547,104.85779 169.69547,102.06833 C 169.69547,99.278868 171.95677,97.017563 174.74624,97.017563 C 177.5357,97.017563 179.797,99.278868 179.797,102.06833 z " />
  <path
     id="path1886"
     style="fill:white;fill-opacity:1;fill-rule:nonzero;stroke:black;stroke-width:2;stroke-linecap:butt;stroke-linejoin:bevel;stroke-miterlimit:4;stroke-dasharray:none;stroke-dashoffset:0;stroke-opacity:1"
     d="M 128.27922,48.530248 C 128.27922,51.319708 126.01792,53.581013 123.22846,53.581013 C 120.43899,53.581013 118.17769,51.319708 118.17769,48.530248 C 118.17769,45.740788 120.43899,43.479483 123.22846,43.479483 C 126.01792,43.479483 128.27922,45.740788 128.27922,48.530248 z " />
  <path
     id="path1888"
     style="fill:white;fill-opacity:1;fill-rule:nonzero;stroke:black;stroke-width:2;stroke-linecap:butt;stroke-linejoin:bevel;stroke-miterlimit:4;stroke-dasharray:none;stroke-dashoffset:0;stroke-opacity:1"
     d="M 218.18276,24.286588 C 218.18276,27.076048 215.92146,29.337353 213.132,29.337353 C 210.34253,29.337353 208.08123,27.076048 208.08123,24.286588 C 208.08123,21.497128 210.34253,19.235823 213.132,19.235823 C 215.92146,19.235823 218.18276,21.497128 218.18276,24.286588 z " />
  <path
     id="path9181"
     style="fill:none;fill-rule:evenodd;stroke:black;stroke-width:1;stroke-linecap:butt;stroke-linejoin:miter;stroke-miterlimit:4;stroke-dasharray:4, 2;stroke-dashoffset:0;stroke-opacity:1"
     d="M 157.85713,56.102251 C 145.64375,39.367015 157.96714,23.981866 140.83815,7.928157 C 123.51811,-8.304609 108.9233,4.785478 102.41175,21.194686 C 95.94994,37.478551 78.71213,53.12279 62.586001,62.829482 C 46.196955,72.694432 48.602039,96.00717 62.461247,105.51232 C 76.07656,114.85019 94.97256,129.73791 106.31628,137.82391 C 117.66,145.90991 131.57086,147.55767 145.76111,139.41208 C 159.95136,131.26649 180.91541,122.34876 185.97505,108.80454 C 191.03469,95.26032 170.07051,72.837491 157.85713,56.102251 z " />
</svg>
