<?xml version="1.0" encoding="UTF-8" standalone="no"?>
<!-- Created with Inkscape (http://www.inkscape.org/) -->
<svg
   xmlns:svg="http://www.w3.org/2000/svg"
   xmlns="http://www.w3.org/2000/svg"
   version="1.0"
   width="404.10938"
   height="369.57422"
   id="svg9115">
  <defs
     id="defs9117" />
  <g
     transform="translate(-173.9141,-346.7098)"
     id="layer1">
    <g
       transform="matrix(0.866025,0.5,-0.5,0.866025,468.9463,532.9993)"
       id="g9223" />
    <path
       d="M 319.05796,328.81933 L 138.05936,328.81932 L 47.560074,172.06994 L 138.05938,15.32056 L 319.05798,15.320568 L 409.55727,172.06996 L 319.05796,328.81933 z "
       transform="matrix(1.011166,0,0,1.011166,143.794,358.3709)"
       style="opacity:1;fill:none;fill-opacity:1;fill-rule:nonzero;stroke:black;stroke-width:0.98895729;stroke-linecap:butt;stroke-linejoin:bevel;stroke-miterlimit:4;stroke-dasharray:none;stroke-dashoffset:0;stroke-opacity:1"
       id="path7339" />
    <path
       d="M 319.05796,328.81933 L 47.560074,172.06994 L 319.05798,15.320568 L 319.05796,328.81933 z "
       transform="matrix(1.011166,0,0,1.011166,143.794,358.3709)"
       style="opacity:1;fill:none;fill-opacity:1;fill-rule:nonzero;stroke:black;stroke-width:0.98895729;stroke-linecap:butt;stroke-linejoin:bevel;stroke-miterlimit:4;stroke-dasharray:none;stroke-dashoffset:0;stroke-opacity:1"
       id="path8226" />
    <path
       d="M 319.05796,328.81933 L 47.560074,172.06994 L 319.05798,15.320568 L 319.05796,328.81933 z "
       transform="matrix(-1.011166,0,0,-1.011166,606.206,706.3535)"
       style="opacity:1;fill:none;fill-opacity:1;fill-rule:nonzero;stroke:black;stroke-width:0.98895729;stroke-linecap:butt;stroke-linejoin:bevel;stroke-miterlimit:4;stroke-dasharray:none;stroke-dashoffset:0;stroke-opacity:1"
       id="path8228" />
    <text
       x="271"
       y="363.36218"
       style="font-size:24px;font-style:normal;font-weight:normal;fill:black;fill-opacity:1;stroke:none;stroke-width:1px;stroke-linecap:butt;stroke-linejoin:miter;stroke-opacity:1;font-family:Gill Sans MT"
       id="text9126"
       xml:space="preserve"><tspan
         x="271"
         y="363.36218"
         style="font-size:24px;font-style:normal;font-family:cmmi10"
         id="tspan9128">c</tspan></text>
    <text
       x="470"
       y="363.36218"
       style="font-size:24px;font-style:normal;font-weight:normal;fill:black;fill-opacity:1;stroke:none;stroke-width:1px;stroke-linecap:butt;stroke-linejoin:miter;stroke-opacity:1;font-family:Gill Sans MT"
       id="text9130"
       xml:space="preserve"><tspan
         x="470"
         y="363.36218"
         style="font-size:24px;font-style:normal;font-family:cmmi10"
         id="tspan9132">b</tspan></text>
    <text
       x="271"
       y="711.36218"
       style="font-size:24px;font-style:normal;font-weight:normal;fill:black;fill-opacity:1;stroke:none;stroke-width:1px;stroke-linecap:butt;stroke-linejoin:miter;stroke-opacity:1;font-family:Gill Sans MT"
       id="text9134"
       xml:space="preserve"><tspan
         x="271"
         y="711.36218"
         style="font-size:24px;font-style:normal;font-family:cmmi10"
         id="tspan9136">e</tspan></text>
    <text
       x="470"
       y="711.36218"
       style="font-size:24px;font-style:normal;font-weight:normal;fill:black;fill-opacity:1;stroke:none;stroke-width:1px;stroke-linecap:butt;stroke-linejoin:miter;stroke-opacity:1;font-family:Gill Sans MT"
       id="text9138"
       xml:space="preserve"><tspan
         x="470"
         y="711.36218"
         style="font-size:24px;font-style:normal;font-family:cmmi10"
         id="tspan9140">f</tspan></text>
    <text
       x="173"
       y="538.36218"
       style="font-size:24px;font-style:normal;font-weight:normal;fill:black;fill-opacity:1;stroke:none;stroke-width:1px;stroke-linecap:butt;stroke-linejoin:miter;stroke-opacity:1;font-family:Gill Sans MT"
       id="text9142"
       xml:space="preserve"><tspan
         x="173"
         y="538.36218"
         style="font-size:24px;font-style:normal;font-family:cmmi10"
         id="tspan9144">d</tspan></text>
    <text
       x="566"
       y="538.36218"
       style="font-size:24px;font-style:normal;font-weight:normal;fill:black;fill-opacity:1;stroke:none;stroke-width:1px;stroke-linecap:butt;stroke-linejoin:miter;stroke-opacity:1;font-family:Gill Sans MT"
       id="text9146"
       xml:space="preserve"><tspan
         x="566"
         y="538.36218"
         style="font-size:24px;font-style:normal;font-family:cmmi10"
         id="tspan9148">a</tspan></text>
    <g
       transform="translate(13,16.4375)"
       id="g1964">
      <path
         d="M 453.52344,672.41921 L 455.73069,664.89225 L 453.51556,662.28949 L 451.3083,664.90172 L 453.52344,672.41921 z "
         style="fill:black;fill-opacity:1;fill-rule:evenodd;stroke:black;stroke-width:1px;stroke-linecap:butt;stroke-linejoin:miter;stroke-opacity:1"
         id="path5497" />
      <path
         d="M 454.42798,672.68012 L 460.103,667.26521 L 459.48602,663.90359 L 456.26836,665.06221 L 454.42798,672.68012 z "
         style="fill:black;fill-opacity:1;fill-rule:evenodd;stroke:black;stroke-width:1px;stroke-linecap:butt;stroke-linejoin:miter;stroke-opacity:1"
         id="path1962" />
    </g>
    <g
       transform="matrix(0.5,0.866025,-0.866025,0.5,640.6544,-39.03688)"
       id="g1968">
      <path
         d="M 453.52344,672.41921 L 455.73069,664.89225 L 453.51556,662.28949 L 451.3083,664.90172 L 453.52344,672.41921 z "
         style="fill:black;fill-opacity:1;fill-rule:evenodd;stroke:black;stroke-width:1px;stroke-linecap:butt;stroke-linejoin:miter;stroke-opacity:1"
         id="path1970" />
      <path
         d="M 454.42798,672.68012 L 460.103,667.26521 L 459.48602,663.90359 L 456.26836,665.06221 L 454.42798,672.68012 z "
         style="fill:black;fill-opacity:1;fill-rule:evenodd;stroke:black;stroke-width:1px;stroke-linecap:butt;stroke-linejoin:miter;stroke-opacity:1"
         id="path1972" />
    </g>
    <g
       transform="matrix(-0.5,0.866025,-0.866025,-0.5,1002.682,476.8045)"
       id="g1974">
      <path
         d="M 453.52344,672.41921 L 455.73069,664.89225 L 453.51556,662.28949 L 451.3083,664.90172 L 453.52344,672.41921 z "
         style="fill:black;fill-opacity:1;fill-rule:evenodd;stroke:black;stroke-width:1px;stroke-linecap:butt;stroke-linejoin:miter;stroke-opacity:1"
         id="path1976" />
      <path
         d="M 454.42798,672.68012 L 460.103,667.26521 L 459.48602,663.90359 L 456.26836,665.06221 L 454.42798,672.68012 z "
         style="fill:black;fill-opacity:1;fill-rule:evenodd;stroke:black;stroke-width:1px;stroke-linecap:butt;stroke-linejoin:miter;stroke-opacity:1"
         id="path1978" />
    </g>
    <g
       transform="matrix(-0.999999,-1.702937e-7,1.702937e-7,-0.999999,737.1194,1047.731)"
       id="g1980">
      <path
         d="M 453.52344,672.41921 L 455.73069,664.89225 L 453.51556,662.28949 L 451.3083,664.90172 L 453.52344,672.41921 z "
         style="fill:black;fill-opacity:1;fill-rule:evenodd;stroke:black;stroke-width:1px;stroke-linecap:butt;stroke-linejoin:miter;stroke-opacity:1"
         id="path1982" />
      <path
         d="M 454.42798,672.68012 L 460.103,667.26521 L 459.48602,663.90359 L 456.26836,665.06221 L 454.42798,672.68012 z "
         style="fill:black;fill-opacity:1;fill-rule:evenodd;stroke:black;stroke-width:1px;stroke-linecap:butt;stroke-linejoin:miter;stroke-opacity:1"
         id="path1984" />
    </g>
    <g
       transform="matrix(-0.499999,-0.866025,0.866025,-0.499999,109.1924,1103.703)"
       id="g1986">
      <path
         d="M 453.52344,672.41921 L 455.73069,664.89225 L 453.51556,662.28949 L 451.3083,664.90172 L 453.52344,672.41921 z "
         style="fill:black;fill-opacity:1;fill-rule:evenodd;stroke:black;stroke-width:1px;stroke-linecap:butt;stroke-linejoin:miter;stroke-opacity:1"
         id="path1988" />
      <path
         d="M 454.42798,672.68012 L 460.103,667.26521 L 459.48602,663.90359 L 456.26836,665.06221 L 454.42798,672.68012 z "
         style="fill:black;fill-opacity:1;fill-rule:evenodd;stroke:black;stroke-width:1px;stroke-linecap:butt;stroke-linejoin:miter;stroke-opacity:1"
         id="path1990" />
    </g>
    <g
       transform="matrix(0.5,-0.866024,0.866024,0.5,-252.9342,587.7554)"
       id="g1992">
      <path
         d="M 453.52344,672.41921 L 455.73069,664.89225 L 453.51556,662.28949 L 451.3083,664.90172 L 453.52344,672.41921 z "
         style="fill:black;fill-opacity:1;fill-rule:evenodd;stroke:black;stroke-width:1px;stroke-linecap:butt;stroke-linejoin:miter;stroke-opacity:1"
         id="path1994" />
      <path
         d="M 454.42798,672.68012 L 460.103,667.26521 L 459.48602,663.90359 L 456.26836,665.06221 L 454.42798,672.68012 z "
         style="fill:black;fill-opacity:1;fill-rule:evenodd;stroke:black;stroke-width:1px;stroke-linecap:butt;stroke-linejoin:miter;stroke-opacity:1"
         id="path1996" />
    </g>
  </g>
</svg>
