<?xml version="1.0" encoding="UTF-8" standalone="no"?>
<!-- Created with Inkscape (http://www.inkscape.org/) -->
<svg
   xmlns:dc="http://purl.org/dc/elements/1.1/"
   xmlns:cc="http://web.resource.org/cc/"
   xmlns:rdf="http://www.w3.org/1999/02/22-rdf-syntax-ns#"
   xmlns:svg="http://www.w3.org/2000/svg"
   xmlns="http://www.w3.org/2000/svg"
   xmlns:sodipodi="http://sodipodi.sourceforge.net/DTD/sodipodi-0.dtd"
   xmlns:inkscape="http://www.inkscape.org/namespaces/inkscape"
   version="1.0"
   width="237.36555"
   height="134.32999"
   id="svg2"
   sodipodi:version="0.32"
   inkscape:version="0.44.1"
   sodipodi:docname="unicast.svg">

  <metadata
     id="metadata28">
    <rdf:RDF>
      <cc:Work
         rdf:about="">
        <dc:format>image/svg+xml</dc:format>
        <dc:type
           rdf:resource="http://purl.org/dc/dcmitype/StillImage" />
      </cc:Work>
    </rdf:RDF>
  </metadata>
  <sodipodi:namedview
     inkscape:window-height="573"
     inkscape:window-width="853"
     inkscape:pageshadow="2"
     inkscape:pageopacity="0.0"
     guidetolerance="10.0"
     gridtolerance="10.0"
     objecttolerance="10.0"
     borderopacity="1.0"
     bordercolor="#666666"
     pagecolor="#ffffff"
     id="base"
     inkscape:zoom="2.8065215"
     inkscape:cx="118.68278"
     inkscape:cy="67.164993"
     inkscape:window-x="176"
     inkscape:window-y="232"
     inkscape:current-layer="svg2" />
  <defs
     id="defs4" />
  <path
     id="path1890"
     style="fill:none;fill-rule:evenodd;stroke:black;stroke-width:0.5;stroke-linecap:butt;stroke-linejoin:miter;stroke-opacity:1;stroke-miterlimit:4;stroke-dasharray:none"
     d="M 6.050769,55.548243 L 63.629464,78.78175" />
  <path
     id="path1892"
     style="fill:none;fill-rule:evenodd;stroke:black;stroke-width:0.5;stroke-linecap:butt;stroke-linejoin:miter;stroke-opacity:1;stroke-miterlimit:4;stroke-dasharray:none"
     d="M 40.395956,16.152294 L 7.060922,55.548243" />
  <path
     id="path2807"
     style="fill:none;fill-rule:evenodd;stroke:black;stroke-width:2.5;stroke-linecap:butt;stroke-linejoin:miter;stroke-miterlimit:4;stroke-dasharray:none;stroke-opacity:1"
     d="M 123.22846,44.436565 L 7.565998,55.548243" />
  <path
     id="path1894"
     style="fill:none;fill-rule:evenodd;stroke:black;stroke-width:0.5;stroke-linecap:butt;stroke-linejoin:miter;stroke-opacity:1;stroke-miterlimit:4;stroke-dasharray:none"
     d="M 64.139062,78.77723 L 122.9714,44.188548" />
  <path
     id="path1896"
     style="fill:none;fill-rule:evenodd;stroke:black;stroke-width:0.5;stroke-linecap:butt;stroke-linejoin:miter;stroke-opacity:1;stroke-miterlimit:4;stroke-dasharray:none"
     d="M 63.629464,78.78175 C 63.629464,78.78175 125.24877,128.27923 127.26907,129.28938 L 124.23862,43.931489" />
  <path
     id="path3714"
     style="fill:none;fill-rule:evenodd;stroke:black;stroke-width:2.5;stroke-linecap:butt;stroke-linejoin:miter;stroke-miterlimit:4;stroke-dasharray:none;stroke-opacity:1"
     d="M 175.25132,97.46957 L 123.73354,44.436565" />
  <path
     id="path1898"
     style="fill:none;fill-rule:evenodd;stroke:black;stroke-width:0.5;stroke-linecap:butt;stroke-linejoin:miter;stroke-opacity:1;stroke-miterlimit:4;stroke-dasharray:none"
     d="M 127.26907,127.26907 L 175.25132,97.46957" />
  <path
     id="path1900"
     style="fill:none;fill-rule:evenodd;stroke:black;stroke-width:0.5;stroke-linecap:butt;stroke-linejoin:miter;stroke-opacity:1;stroke-miterlimit:4;stroke-dasharray:none"
     d="M 124.23862,5.545692 L 7.060922,55.548243" />
  <path
     id="path1902"
     style="fill:none;fill-rule:evenodd;stroke:black;stroke-width:0.5;stroke-linecap:butt;stroke-linejoin:miter;stroke-opacity:1;stroke-miterlimit:4;stroke-dasharray:none"
     d="M 39.89088,15.647218 L 125.24877,6.050769 L 123.73354,44.436565" />
  <path
     id="path1904"
     style="fill:none;fill-rule:evenodd;stroke:black;stroke-width:0.5;stroke-linecap:butt;stroke-linejoin:miter;stroke-opacity:1;stroke-miterlimit:4;stroke-dasharray:none"
     d="M 123.73354,43.931489 L 213.13204,19.687828 L 124.74369,6.555845" />
  <path
     id="path4607"
     style="fill:none;fill-rule:evenodd;stroke:black;stroke-width:0.5;stroke-linecap:butt;stroke-linejoin:miter;stroke-opacity:1;stroke-miterlimit:4;stroke-dasharray:none"
     d="M 175.25132,96.96449 L 213.13204,20.192905" />
  <path
     id="path4605"
     style="fill:none;fill-rule:evenodd;stroke:black;stroke-width:0.5;stroke-linecap:butt;stroke-linejoin:miter;stroke-opacity:1;stroke-miterlimit:4;stroke-dasharray:none"
     d="M 213.13204,20.192905 L 231.81987,70.700535" />
  <path
     id="path1906"
     style="fill:none;fill-rule:evenodd;stroke:black;stroke-width:2.5;stroke-linecap:butt;stroke-linejoin:miter;stroke-miterlimit:4;stroke-dasharray:none;stroke-opacity:1"
     d="M 231.81987,70.700535 L 175.25132,96.96449" />
  <path
     id="path1872"
     style="fill:white;fill-opacity:1;fill-rule:nonzero;stroke:black;stroke-width:2;stroke-linecap:butt;stroke-linejoin:bevel;stroke-miterlimit:4;stroke-dasharray:none;stroke-dashoffset:0;stroke-opacity:1"
     d="M 45.44671,16.152298 C 45.44671,18.941758 43.18541,21.203063 40.39595,21.203063 C 37.60648,21.203063 35.34518,18.941758 35.34518,16.152298 C 35.34518,13.362838 37.60648,11.101533 40.39595,11.101533 C 43.18541,11.101533 45.44671,13.362838 45.44671,16.152298 z " />
  <path
     id="path1874"
     style="fill:white;fill-opacity:1;fill-rule:nonzero;stroke:black;stroke-width:2;stroke-linecap:butt;stroke-linejoin:bevel;stroke-miterlimit:4;stroke-dasharray:none;stroke-dashoffset:0;stroke-opacity:1"
     d="M 236.36554,71.710688 C 236.36554,74.500148 234.10424,76.761453 231.31478,76.761453 C 228.52531,76.761453 226.26401,74.500148 226.26401,71.710688 C 226.26401,68.921228 228.52531,66.659923 231.31478,66.659923 C 234.10424,66.659923 236.36554,68.921228 236.36554,71.710688 z " />
  <path
     id="path1876"
     style="fill:white;fill-opacity:1;fill-rule:nonzero;stroke:black;stroke-width:2;stroke-linecap:butt;stroke-linejoin:bevel;stroke-miterlimit:4;stroke-dasharray:none;stroke-dashoffset:0;stroke-opacity:1"
     d="M 129.28937,6.050768 C 129.28937,8.840228 127.02807,11.101533 124.23861,11.101533 C 121.44914,11.101533 119.18784,8.840228 119.18784,6.050768 C 119.18784,3.261308 121.44914,1.000003 124.23861,1.000003 C 127.02807,1.000003 129.28937,3.261308 129.28937,6.050768 z " />
  <path
     id="path1878"
     style="fill:white;fill-opacity:1;fill-rule:nonzero;stroke:black;stroke-width:2;stroke-linecap:butt;stroke-linejoin:bevel;stroke-miterlimit:4;stroke-dasharray:none;stroke-dashoffset:0;stroke-opacity:1"
     d="M 131.30968,128.27923 C 131.30968,131.06869 129.04838,133.32999 126.25892,133.32999 C 123.46945,133.32999 121.20815,131.06869 121.20815,128.27923 C 121.20815,125.48977 123.46945,123.22846 126.25892,123.22846 C 129.04838,123.22846 131.30968,125.48977 131.30968,128.27923 z " />
  <path
     id="path1880"
     style="fill:white;fill-opacity:1;fill-rule:nonzero;stroke:black;stroke-width:2;stroke-linecap:butt;stroke-linejoin:bevel;stroke-miterlimit:4;stroke-dasharray:none;stroke-dashoffset:0;stroke-opacity:1"
     d="M 68.68022,78.781758 C 68.68022,81.571218 66.41892,83.832523 63.62946,83.832523 C 60.83999,83.832523 58.57869,81.571218 58.57869,78.781758 C 58.57869,75.992298 60.83999,73.730993 63.62946,73.730993 C 66.41892,73.730993 68.68022,75.992298 68.68022,78.781758 z " />
  <path
     id="path1882"
     style="fill:black;fill-opacity:1;fill-rule:nonzero;stroke:black;stroke-width:2;stroke-linecap:butt;stroke-linejoin:bevel;stroke-miterlimit:4;stroke-dasharray:none;stroke-dashoffset:0;stroke-opacity:1"
     d="M 11.10154,55.548248 C 11.10154,58.337708 8.84024,60.599013 6.05078,60.599013 C 3.26131,60.599013 1.00001,58.337708 1.00001,55.548248 C 1.00001,52.758788 3.26131,50.497483 6.05078,50.497483 C 8.84024,50.497483 11.10154,52.758788 11.10154,55.548248 z " />
  <path
     id="path1884"
     style="fill:white;fill-opacity:1;fill-rule:nonzero;stroke:black;stroke-width:2;stroke-linecap:butt;stroke-linejoin:bevel;stroke-miterlimit:4;stroke-dasharray:none;stroke-dashoffset:0;stroke-opacity:1"
     d="M 179.797,97.974648 C 179.797,100.76411 177.5357,103.02541 174.74624,103.02541 C 171.95677,103.02541 169.69547,100.76411 169.69547,97.974648 C 169.69547,95.185188 171.95677,92.923883 174.74624,92.923883 C 177.5357,92.923883 179.797,95.185188 179.797,97.974648 z " />
  <path
     id="path1886"
     style="fill:white;fill-opacity:1;fill-rule:nonzero;stroke:black;stroke-width:2;stroke-linecap:butt;stroke-linejoin:bevel;stroke-miterlimit:4;stroke-dasharray:none;stroke-dashoffset:0;stroke-opacity:1"
     d="M 128.27922,44.436568 C 128.27922,47.226028 126.01792,49.487333 123.22846,49.487333 C 120.43899,49.487333 118.17769,47.226028 118.17769,44.436568 C 118.17769,41.647108 120.43899,39.385803 123.22846,39.385803 C 126.01792,39.385803 128.27922,41.647108 128.27922,44.436568 z " />
  <path
     id="path1888"
     style="fill:white;fill-opacity:1;fill-rule:nonzero;stroke:black;stroke-width:2;stroke-linecap:butt;stroke-linejoin:bevel;stroke-miterlimit:4;stroke-dasharray:none;stroke-dashoffset:0;stroke-opacity:1"
     d="M 218.18276,20.192908 C 218.18276,22.982368 215.92146,25.243673 213.132,25.243673 C 210.34253,25.243673 208.08123,22.982368 208.08123,20.192908 C 208.08123,17.403448 210.34253,15.142143 213.132,15.142143 C 215.92146,15.142143 218.18276,17.403448 218.18276,20.192908 z " />
</svg>
