<?xml version="1.0" encoding="UTF-8" standalone="no"?>
<!-- Created with Inkscape (http://www.inkscape.org/) -->
<svg
   xmlns:svg="http://www.w3.org/2000/svg"
   xmlns="http://www.w3.org/2000/svg"
   version="1.0"
   width="373.51007"
   height="220.90164"
   id="svg2">
  <defs
     id="defs29" />
  <path
     d="M 42.94738,174.97207 L 42.94738,5.797245 M 193.21813,179.46429 L 193.21813,170.47986 M 343.39347,179.46429 L 343.39347,170.47986"
     style="fill:none;stroke:black;stroke-width:1.05043912;stroke-linecap:butt;stroke-linejoin:miter;stroke-miterlimit:4"
     id="path18" />
  <path
     d="M 92.985765,179.46429 L 92.985765,170.47986"
     style="fill:none;stroke:black;stroke-width:1.05043912;stroke-linecap:butt;stroke-linejoin:miter;stroke-miterlimit:4"
     id="path1899" />
  <g
     transform="matrix(9.541e-2,0,0,9.5579e-2,-132.4162,-95.0386)"
     style="fill:black;fill-rule:nonzero;stroke:black;stroke-width:1"
     id="g4">
    <path
       d="M 5202,2861 L 5302,2825 L 5202,2789 L 5242,2825"
       id="path6" />
  </g>
  <g
     transform="matrix(9.541e-2,0,0,9.5579e-2,-132.4162,-95.0386)"
     style="fill:none;stroke:black;stroke-width:11;stroke-linecap:butt;stroke-linejoin:miter;stroke-miterlimit:4"
     id="g8">
    <path
       d="M 1838,2825 L 5242,2825"
       id="path10" />
  </g>
  <g
     transform="matrix(9.541e-2,0,0,9.5579e-2,-132.4162,-95.0386)"
     style="fill:black;fill-rule:nonzero;stroke:black;stroke-width:1"
     id="g12">
    <path
       d="M 1874,1095 L 1838,995 L 1802,1095 L 1838,1055"
       id="path14" />
  </g>
  <g
     transform="matrix(9.541e-2,0,0,9.5579e-2,-132.4162,-95.0386)"
     style="fill:none;stroke:black;stroke-width:11;stroke-linecap:butt;stroke-linejoin:miter;stroke-miterlimit:4"
     id="g20">
    <path
       d="M 1885,2235 L 1791,2235 M 1885,1644 L 1791,1644"
       id="path22" />
  </g>
  <g
     transform="matrix(9.541e-2,0,0,9.5579e-2,-132.4162,-95.0386)"
     style="fill:none;stroke:black;stroke-width:25;stroke-linecap:butt;stroke-linejoin:miter;stroke-miterlimit:4"
     id="g24">
    <path
       d="M 1838,1453 L 1838,1453 C 1838,1453 1858,1430 1870,1420 C 1880,1411 1890,1405 1902,1397 C 1912,1391 1922,1385 1934,1380 C 1944,1374 1954,1370 1965,1365 C 1976,1361 1986,1357 1997,1353 C 2008,1349 2018,1346 2029,1342 C 2040,1339 2050,1336 2061,1333 C 2072,1330 2082,1328 2093,1326 C 2104,1323 2113,1321 2124,1319 C 2135,1317 2145,1315 2156,1314 C 2167,1312 2177,1311 2188,1309 C 2199,1308 2209,1307 2220,1306 C 2231,1305 2241,1304 2252,1303 C 2263,1302 2272,1301 2283,1301 C 2294,1300 2304,1300 2315,1299 C 2326,1299 2336,1299 2347,1299 C 2358,1299 2368,1299 2379,1299 C 2390,1299 2400,1299 2411,1299 C 2422,1300 2432,1300 2443,1301 C 2453,1301 2463,1302 2474,1302 C 2485,1303 2495,1304 2506,1305 C 2517,1306 2527,1306 2538,1308 C 2549,1309 2559,1310 2570,1311 C 2581,1312 2591,1313 2602,1315 C 2613,1316 2622,1317 2633,1319 C 2644,1321 2654,1322 2665,1324 C 2676,1325 2686,1327 2697,1329 C 2708,1331 2718,1332 2729,1335 C 2740,1337 2750,1338 2761,1341 C 2772,1343 2781,1345 2792,1347 C 2803,1349 2813,1351 2824,1354 C 2835,1356 2845,1359 2856,1361 C 2867,1364 2877,1366 2888,1369 C 2899,1372 2909,1374 2920,1377 C 2931,1380 2940,1382 2951,1385 C 2962,1388 2972,1391 2983,1394 C 2994,1397 3004,1400 3015,1404 C 3026,1407 3036,1410 3047,1413 C 3058,1416 3068,1420 3079,1423 C 3090,1427 3100,1430 3110,1433 C 3121,1437 3131,1440 3142,1444 C 3153,1448 3163,1451 3174,1455 C 3185,1459 3195,1463 3206,1467 C 3217,1471 3227,1474 3238,1478 C 3249,1482 3259,1486 3270,1490 C 3281,1495 3290,1498 3301,1503 C 3312,1507 3322,1511 3333,1516 C 3344,1520 3354,1524 3365,1529 C 3376,1533 3386,1538 3397,1542 C 3408,1547 3418,1551 3429,1556 C 3440,1561 3449,1565 3460,1570 C 3471,1575 3481,1580 3492,1585 C 3503,1590 3513,1595 3524,1600 C 3535,1605 3545,1610 3556,1615 C 3567,1620 3577,1625 3588,1631 C 3599,1636 3608,1641 3619,1647 C 3630,1652 3640,1657 3651,1663 C 3662,1669 3672,1674 3683,1679 C 3694,1685 3704,1691 3715,1697 C 3726,1702 3736,1708 3747,1714 C 3758,1720 3767,1725 3778,1732 C 3789,1738 3799,1743 3810,1750 C 3821,1756 3831,1762 3842,1768 C 3853,1775 3863,1780 3874,1787 C 3885,1794 3895,1800 3906,1806 C 3917,1813 3927,1819 3937,1826 C 3948,1833 3958,1839 3969,1846 C 3980,1853 3990,1859 4001,1866 C 4012,1873 4022,1880 4033,1887 C 4044,1894 4054,1901 4065,1908 C 4076,1916 4086,1922 4097,1930 C 4108,1938 4117,1944 4128,1952 C 4139,1960 4149,1967 4160,1975 C 4171,1982 4181,1990 4192,1997 C 4203,2006 4213,2013 4224,2021 C 4235,2029 4245,2037 4256,2045 C 4267,2053 4276,2061 4287,2069 C 4298,2078 4308,2085 4319,2094 C 4330,2103 4340,2111 4351,2119 C 4362,2128 4372,2136 4383,2145 C 4394,2154 4404,2163 4415,2172 C 4426,2181 4435,2190 4446,2199 C 4457,2208 4467,2217 4478,2227 C 4489,2236 4499,2245 4510,2255 C 4521,2265 4531,2274 4542,2284 C 4553,2294 4563,2303 4574,2314 C 4585,2324 4595,2334 4605,2344 C 4616,2355 4626,2365 4637,2376 C 4648,2387 4658,2397 4669,2408 C 4680,2419 4690,2429 4701,2441 C 4712,2453 4722,2463 4733,2475 C 4744,2487 4754,2498 4764,2510 C 4776,2523 4785,2534 4796,2547 C 4807,2560 4817,2572 4828,2585 C 4839,2599 4849,2611 4860,2625 C 4871,2640 4881,2653 4892,2668 C 4903,2683 4913,2697 4924,2713 C 4935,2730 4945,2745 4955,2763 C 4967,2784 4987,2824 4987,2824"
       id="path26" />
  </g>
  <text
     x="155.37984"
     y="216.90164"
     style="font-size:24px;font-style:normal;font-weight:normal;fill:black;fill-opacity:1;stroke:none;stroke-width:1px;stroke-linecap:butt;stroke-linejoin:miter;stroke-opacity:1;font-family:Gill Sans MT"
     id="text1895"
     xml:space="preserve"><tspan
       x="155.37984"
       y="216.90164"
       style="font-size:16px;font-family:cmr10"
       id="tspan1897">Pr(<tspan
   style="font-style:normal;font-family:cmmi10"
   id="tspan1899">X</tspan> = 6)</tspan></text>
  <text
     x="339.2887"
     y="194.57034"
     style="font-size:24px;font-style:normal;font-weight:normal;fill:black;fill-opacity:1;stroke:none;stroke-width:1px;stroke-linecap:butt;stroke-linejoin:miter;stroke-opacity:1;font-family:Gill Sans MT"
     id="text1901"
     xml:space="preserve"><tspan
       x="339.2887"
       y="194.57034"
       style="font-size:16px;font-family:cmr10"
       id="tspan1903">1</tspan></text>
  <text
     x="180.91971"
     y="194.57034"
     style="font-size:24px;font-style:normal;font-weight:normal;fill:black;fill-opacity:1;stroke:none;stroke-width:1px;stroke-linecap:butt;stroke-linejoin:miter;stroke-opacity:1;font-family:Gill Sans MT"
     id="text1907"
     xml:space="preserve"><tspan
       x="180.91971"
       y="194.57034"
       style="font-size:16px;font-family:cmr10"
       id="tspan1909">1/2</tspan></text>
  <text
     x="38.557709"
     y="194.57034"
     style="font-size:24px;font-style:normal;font-weight:normal;fill:black;fill-opacity:1;stroke:none;stroke-width:1px;stroke-linecap:butt;stroke-linejoin:miter;stroke-opacity:1;font-family:Gill Sans MT"
     id="text1913"
     xml:space="preserve"><tspan
       x="38.557709"
       y="194.57034"
       style="font-size:16px;font-family:cmr10"
       id="tspan1915">0</tspan></text>
  <text
     x="24.074677"
     y="179.21759"
     style="font-size:24px;font-style:normal;font-weight:normal;fill:black;fill-opacity:1;stroke:none;stroke-width:1px;stroke-linecap:butt;stroke-linejoin:miter;stroke-opacity:1;font-family:Gill Sans MT"
     id="text1919"
     xml:space="preserve"><tspan
       x="24.074677"
       y="179.21759"
       style="font-size:16px;font-family:cmr10"
       id="tspan1921">0</tspan></text>
  <text
     x="24.004364"
     y="124.78505"
     style="font-size:24px;font-style:normal;font-weight:normal;fill:black;fill-opacity:1;stroke:none;stroke-width:1px;stroke-linecap:butt;stroke-linejoin:miter;stroke-opacity:1;font-family:Gill Sans MT"
     id="text1925"
     xml:space="preserve"><tspan
       x="24.004364"
       y="124.78505"
       style="font-size:16px;font-family:cmr10"
       id="tspan1927">1</tspan></text>
  <text
     x="24.074677"
     y="68.956802"
     style="font-size:24px;font-style:normal;font-weight:normal;fill:black;fill-opacity:1;stroke:none;stroke-width:1px;stroke-linecap:butt;stroke-linejoin:miter;stroke-opacity:1;font-family:Gill Sans MT"
     id="text1931"
     xml:space="preserve"><tspan
       x="24.074677"
       y="68.956802"
       style="font-size:16px;font-family:cmr10"
       id="tspan1933">2</tspan></text>
  <text
     x="-107.31799"
     y="12"
     transform="matrix(0,-1,1,0,0,0)"
     style="font-size:24px;font-style:normal;font-weight:normal;fill:black;fill-opacity:1;stroke:none;stroke-width:1px;stroke-linecap:butt;stroke-linejoin:miter;stroke-opacity:1;font-family:Gill Sans MT"
     id="text1937"
     xml:space="preserve"><tspan
       x="-107.31799"
       y="12"
       style="font-size:16px;font-family:cmr10"
       id="tspan1939"><tspan
   style="font-style:normal;font-family:cmmi10"
   id="tspan1947">H</tspan>(<tspan
   style="font-style:normal;font-family:cmmi10"
   id="tspan1941">X</tspan><tspan
   style="font-family:cmmi10"
   id="tspan1910"><tspan
     style="font-family:cmr10"
     id="tspan1914">) </tspan></tspan></tspan></text>
  <text
     x="92.753059"
     y="194.57034"
     style="font-size:24px;font-style:normal;font-weight:normal;fill:black;fill-opacity:1;stroke:none;stroke-width:1px;stroke-linecap:butt;stroke-linejoin:miter;stroke-opacity:1;font-family:Gill Sans MT"
     id="text1902"
     xml:space="preserve"><tspan
       x="92.753059"
       y="194.57034"
       style="font-size:16px;text-align:center;text-anchor:middle;font-family:cmr10"
       id="tspan1904">1/6</tspan></text>
  <path
     d="M 92.985765,169.21308 L 92.985765,29.619176"
     style="fill:none;stroke:black;stroke-width:1;stroke-linecap:butt;stroke-linejoin:miter;stroke-miterlimit:4;stroke-dasharray:4, 4;stroke-dashoffset:0"
     id="path1908" />
</svg>
